<svg xmlns="http://www.w3.org/2000/svg" id="buildings" x="0" y="0" enable-background="new 0 0 2500 2500" version="1.1" viewBox="0 0 2500 2500" xml:space="preserve"><path fill="#8bd2d6" d="M2403.66,1195.34c-23.31,116.73-39.62,234.71-51.03,353.16c-5.18,53.24-9.4,106.57-12.85,159.99
				c-0.1,2.02-0.29,4.03-0.38,6.04c-5.66,89.78-22.83,167.57-51.03,234.04c-14.77,35.2-32.71,67.24-53.52,96.11
				c-29.73,41.25-65.61,76.26-107.24,105.03c-6.52,4.6-13.14,8.92-19.95,13.14c-0.09,0-0.09,0-0.09,0.1
				c-101.19,62.73-233.65,92.84-394.51,93.42c-168.62,0.57-335.52,32.52-494.36,88.82c-269.63,95.63-511.91,31.75-716.41-251.69
				c-35.78-49.68-73.57-97.84-112.6-144.93c-40.29-48.53-82.01-95.92-124.5-142.63c-29.54-32.42-55.54-64.94-78.08-97.45
				c-14.77-21.39-28.1-42.87-39.81-64.27c-33.19-60.43-54.29-121.05-63.02-181.76C55.5,1262,161.01,1060.1,406.85,856.56
				c129.39-98.7,229.34-226.18,301.08-381.08c113.76-245.93,371.49-395.18,639.58-355.95c96.11,14,201.43,50.36,313.55,120.28
				c117.98,73.38,237.97,143.78,360.65,209.1C2336.03,616.38,2470.32,862.22,2403.66,1195.34z"></path><path fill="#66c7c8" d="M2352.63,1462.47v86.03c-5.18,53.24-9.4,106.57-12.85,159.99c-0.1,2.02-0.29,4.03-0.38,6.04
				c-5.66,89.78-22.83,167.57-51.03,234.04c-14.77,35.2-32.71,67.24-53.52,96.11c-29.73,41.25-65.61,76.26-107.24,105.03
				c-6.52,4.6-13.14,8.92-19.95,13.14c-0.09,0-0.09,0-0.09,0.1c-101.19,62.73-233.65,92.84-394.51,93.42
				c-168.62,0.57-335.52,32.52-494.36,88.82c-269.63,95.63-511.91,31.75-716.41-251.69c-35.78-49.68-73.57-97.84-112.6-144.93
				c-40.29-48.53-82.01-95.92-124.5-142.63c-29.54-32.42-55.54-64.94-78.08-97.45c-14.77-21.39-28.1-42.87-39.81-64.27
				c-33.19-60.43-54.29-121.05-63.02-181.76H405.6v-554.4h239.89v554.4h48.73v-416.09h139.85v416.09h73.18V791.43h90.84V661.27
				h156.34v130.16h82.4v671.04h94.96v-416.09h139.94v416.09h101.86V791.43h224.16v671.04h150.88V886.39h136.87v576.08h70.31v-378.11
				h56.49v-75.39h54.48v75.39h25.9v378.11H2352.63z"></path><rect width="487.79" height="894.15" x="1026.01" y="845.78" fill="#f8c214"></rect><rect width="120.45" height="894.15" x="1513.8" y="845.78" fill="#e99f22"></rect><rect width="530.78" height="65.33" x="983.03" y="780.45" fill="#fcdf6d"></rect><rect width="141.88" height="65.33" x="1513.8" y="780.45" fill="#eed06d"></rect><rect width="377.67" height="63.29" x="1081.07" y="878.44" fill="#fcdf6d"></rect><rect width="377.67" height="63.29" x="1081.07" y="1006.03" fill="#fcdf6d"></rect><rect width="377.67" height="63.29" x="1081.07" y="1133.62" fill="#fcdf6d"></rect><rect width="377.67" height="63.29" x="1081.07" y="1261.21" fill="#fcdf6d"></rect><rect width="377.67" height="63.29" x="1081.07" y="1388.8" fill="#fcdf6d"></rect><rect width="377.67" height="63.29" x="1081.07" y="1516.39" fill="#fcdf6d"></rect><rect width="377.67" height="63.29" x="1081.07" y="1643.98" fill="#fcdf6d"></rect><g><rect width="73.1" height="808.41" x="2056.66" y="921.26" fill="#e5e5e4"></rect><rect width="364.9" height="808.41" x="1691.76" y="921.26" fill="#fcfdff"></rect><rect width="45.93" height="102.58" x="1735.27" y="993.22" fill="#8bd2d6"></rect><rect width="45.93" height="102.58" x="1967.22" y="993.22" fill="#8bd2d6"></rect><rect width="45.93" height="102.58" x="1735.27" y="1180.52" fill="#8bd2d6"></rect><rect width="45.93" height="102.58" x="1967.22" y="1180.52" fill="#8bd2d6"></rect><g><rect width="45.93" height="102.58" x="1735.27" y="1367.82" fill="#8bd2d6"></rect><rect width="45.93" height="102.58" x="1967.22" y="1367.82" fill="#8bd2d6"></rect></g><g><rect width="45.93" height="102.58" x="1735.27" y="1555.12" fill="#8bd2d6"></rect><rect width="45.93" height="102.58" x="1967.22" y="1555.12" fill="#8bd2d6"></rect></g><rect width="374.34" height="45.76" x="1682.32" y="875.49" fill="#05aea7"></rect><rect width="76.76" height="45.76" x="2056.66" y="875.49" fill="#00a099"></rect></g><g><rect width="34.54" height="129.37" x="847.23" y="616.97" fill="#e5e5e4"></rect><rect width="73.1" height="808.41" x="902.62" y="931.52" fill="#e5e5e4"></rect><rect width="364.9" height="808.41" x="537.72" y="931.52" fill="#fcfdff"></rect><rect width="45.93" height="664.49" x="597.39" y="1003.48" fill="#8bd2d6"></rect><rect width="45.93" height="664.49" x="797.03" y="1003.48" fill="#8bd2d6"></rect><rect width="308.51" height="185.17" x="577.75" y="746.34" fill="#fcfdff"></rect><rect width="49.44" height="185.17" x="886.26" y="746.34" fill="#e5e5e4"></rect><rect width="215.55" height="129.37" x="631.68" y="616.97" fill="#fcfdff"></rect><rect width="73.32" height="39.81" x="702.79" y="661.75" fill="#8bd2d6" transform="rotate(-90 739.454 681.658)"></rect><g><rect width="105.64" height="39.81" x="759.96" y="819.03" fill="#8bd2d6" transform="rotate(90 812.776 838.931)"></rect><rect width="105.64" height="39.81" x="613.31" y="819.03" fill="#8bd2d6" transform="rotate(90 666.132 838.931)"></rect></g><rect width="226.23" height="37.32" x="621" y="579.65" fill="#05aea7"></rect><rect width="43.76" height="37.32" x="847.23" y="579.65" fill="#00a099"></rect></g><g><path fill="#00a099" d="M2288.37,1948.58c-14.77,35.2-32.71,67.24-53.52,96.11c-29.73,41.25-65.61,76.26-107.24,105.03
				c-6.52,4.6-13.14,8.92-19.95,13.14c-0.09,0-0.09,0-0.09,0.1c-101.19,62.73-233.65,92.84-394.51,93.42
				c-168.62,0.57-335.52,32.52-494.36,88.82c-269.63,95.63-511.91,31.75-716.41-251.69c-35.78-49.68-73.57-97.84-112.6-144.93
				H2288.37z"></path><path fill="#b34f42" d="M2339.78,1708.5c-0.1,2.02-0.29,4.03-0.38,6.04c-5.66,89.78-22.83,167.57-51.03,234.04H389.68
				c-40.29-48.53-82.01-95.92-124.5-142.63c-29.54-32.42-55.54-64.94-78.08-97.45H2339.78z"></path></g><path fill="#f6f8fa" d="M1620.99,538.08c0,21.68-8.82,41.53-23.15,55.74c-14.33,14.33-34.06,23.15-55.87,23.15h-254.59
		c-43.49,0-78.9-35.41-78.9-78.9c0-21.81,8.82-41.53,23.15-55.87c8.94-9.07,20.21-15.93,32.83-19.72c-0.37-3.06-0.61-6.13-0.61-9.19
		c0-40.19,32.47-72.78,72.65-72.78c17.52,0,33.45,6.25,46.06,16.54c16.05-28.55,46.55-47.78,81.59-47.78c51.7,0,93.6,41.9,93.6,93.6
		c0,6.01-0.61,11.88-1.72,17.52C1592.93,467.01,1620.99,499.23,1620.99,538.08z"></path></svg>