<svg xmlns="http://www.w3.org/2000/svg" xmlns:xlink="http://www.w3.org/1999/xlink" viewBox="0 0 881.926 770.515" id="job-vacancies-information"><defs><linearGradient id="b" x1="39.532" x2="864.831" y1="35.578" y2="706.701" gradientUnits="userSpaceOnUse"><stop offset="0" stop-color="#ffe9fe"></stop><stop offset=".419" stop-color="#cfb3fd"></stop><stop offset="1" stop-color="#906bfc"></stop></linearGradient><linearGradient id="a" x1="162.936" x2="755.258" y1="374.238" y2="374.238" gradientUnits="userSpaceOnUse"><stop offset="0" stop-color="#596a87"></stop><stop offset=".391" stop-color="#4f6283"></stop><stop offset="1" stop-color="#36507a"></stop></linearGradient><linearGradient id="d" x1="3521.859" x2="3545.061" y1="350.53" y2="350.53" gradientTransform="matrix(-1 0 0 1 4239.024 0)" xlink:href="#a"></linearGradient><linearGradient id="e" x1="3492.58" x2="3518.683" y1="356.765" y2="356.765" gradientTransform="matrix(-1 0 0 1 4239.024 0)" xlink:href="#a"></linearGradient><linearGradient id="f" x1="124.381" x2="367.03" y1="-5.085" y2="-5.085" gradientTransform="rotate(7.411 -1801.953 458.616)" xlink:href="#a"></linearGradient><linearGradient id="g" x1="412.902" x2="153.294" y1="-162.996" y2="81.957" gradientTransform="rotate(7.411 -1801.953 458.616)" xlink:href="#a"></linearGradient><linearGradient id="h" x1="27.38" x2="163.082" y1="144.533" y2="144.533" gradientTransform="rotate(7.411 -1801.953 458.616)" xlink:href="#a"></linearGradient><linearGradient id="i" x1="193.457" x2="153.4" y1="50.503" y2="88.299" gradientTransform="rotate(7.411 -1801.953 458.616)" xlink:href="#a"></linearGradient><radialGradient id="c" cx="155.688" cy="26.335" r="944.372" gradientUnits="userSpaceOnUse"><stop offset=".348" stop-color="#efdbff"></stop><stop offset="1" stop-color="#bfb0f9"></stop></radialGradient></defs><g data-name="Layer 1"><path fill="url(#b)" d="M859.907 226.41C781.153 75.367 605.672 114.98 448.787 43.345 291.902-28.289 157.9-6.686 73.557 75.51c-84.342 82.196-114.1 280.37 8.496 459.374 62.08 90.645 160.004 215.31 380.813 195.306C708.86 707.904 951.88 402.807 859.907 226.41Z"></path><path fill="#293b68" d="M755.258 150.865v422.667a26.61 26.61 0 0 1-26.591 26.61h-549.81a26.61 26.61 0 0 1-26.61-26.61V150.865a26.587 26.587 0 0 1 26.61-26.591h549.81a26.595 26.595 0 0 1 26.59 26.591Z"></path><path fill="url(#a)" d="M755.258 153.603v419.929a26.61 26.61 0 0 1-26.591 26.61h-549.81a26.442 26.442 0 0 1-15.921-5.289V174.925a26.59 26.59 0 0 1 26.629-26.591h549.79a26.578 26.578 0 0 1 15.903 5.27Z"></path><path fill="url(#c)" d="M744.076 168.316V563.72a25.623 25.623 0 0 1-25.607 25.634H189.054a25.629 25.629 0 0 1-25.633-25.634V168.316Z"></path><path fill="#293b68" d="M214.796 324.099H237.8a3.432 3.432 0 100-6.863h-23.004a3.432 3.432 0 100 6.863zM248.868 324.099h42.395a3.432 3.432 0 100-6.863h-42.395a3.432 3.432 0 100 6.863zM302.331 324.099h38.899a3.432 3.432 0 100-6.863h-38.899a3.432 3.432 0 100 6.863zM214.796 338.549h45.762a3.432 3.432 0 003.432-3.432 3.432 3.432 0 00-3.432-3.432h-45.762a3.432 3.432 0 00-3.432 3.432 3.432 3.432 0 003.432 3.432zM271.626 331.685a3.432 3.432 0 00-3.432 3.432 3.432 3.432 0 003.432 3.432h14.76a3.432 3.432 0 003.432-3.432 3.432 3.432 0 00-3.431-3.432zM341.23 331.685h-18.489a3.432 3.432 0 00-3.431 3.432 3.432 3.432 0 003.431 3.432h18.49a3.432 3.432 0 003.43-3.432 3.432 3.432 0 00-3.43-3.432zM315.105 335.117a3.432 3.432 0 00-3.432-3.432h-14.218a3.432 3.432 0 00-3.432 3.432 3.432 3.432 0 003.432 3.432h14.218a3.432 3.432 0 003.432-3.432zM214.796 346.135h76.468a3.432 3.432 0 013.431 3.432 3.432 3.432 0 01-3.431 3.431h-76.468a3.432 3.432 0 01-3.432-3.431 3.432 3.432 0 013.432-3.432zM302.331 346.135h38.899a3.432 3.432 0 013.432 3.432 3.432 3.432 0 01-3.432 3.431h-38.899a3.432 3.432 0 01-3.432-3.431 3.432 3.432 0 013.432-3.432zM393.12 324.099h23.004a3.432 3.432 0 100-6.863H393.12a3.432 3.432 0 100 6.863zM427.192 324.099h42.396a3.432 3.432 0 100-6.863h-42.396a3.432 3.432 0 100 6.863zM480.656 324.099h38.899a3.432 3.432 0 100-6.863h-38.9a3.432 3.432 0 100 6.863zM393.12 338.549h45.762a3.432 3.432 0 003.432-3.432 3.432 3.432 0 00-3.432-3.432H393.12a3.432 3.432 0 00-3.432 3.432 3.432 3.432 0 003.432 3.432zM449.95 331.685a3.432 3.432 0 00-3.431 3.432 3.432 3.432 0 003.431 3.432h14.761a3.432 3.432 0 003.432-3.432 3.432 3.432 0 00-3.432-3.432zM519.555 331.685h-18.489a3.432 3.432 0 00-3.432 3.432 3.432 3.432 0 003.432 3.432h18.489a3.432 3.432 0 003.431-3.432 3.432 3.432 0 00-3.431-3.432zM493.43 335.117a3.432 3.432 0 00-3.432-3.432h-14.219a3.432 3.432 0 00-3.432 3.432 3.432 3.432 0 003.432 3.432h14.219a3.432 3.432 0 003.432-3.432zM393.12 346.135h76.468a3.432 3.432 0 013.432 3.432 3.432 3.432 0 01-3.432 3.431H393.12a3.432 3.432 0 01-3.432-3.431 3.432 3.432 0 013.432-3.432zM480.656 346.135h38.899a3.432 3.432 0 013.431 3.432 3.432 3.432 0 01-3.431 3.431h-38.9a3.432 3.432 0 01-3.43-3.431 3.432 3.432 0 013.43-3.432zM571.445 324.099h23.004a3.432 3.432 0 100-6.863h-23.004a3.432 3.432 0 100 6.863zM605.517 324.099h42.396a3.432 3.432 0 100-6.863h-42.396a3.432 3.432 0 100 6.863zM658.98 324.099h38.9a3.432 3.432 0 100-6.863h-38.9a3.432 3.432 0 100 6.863zM571.445 338.549h45.762a3.432 3.432 0 003.432-3.432 3.432 3.432 0 00-3.432-3.432h-45.762a3.432 3.432 0 00-3.432 3.432 3.432 3.432 0 003.432 3.432zM628.275 331.685a3.432 3.432 0 00-3.432 3.432 3.432 3.432 0 003.432 3.432h14.76a3.432 3.432 0 003.433-3.432 3.432 3.432 0 00-3.432-3.432zM697.88 331.685h-18.49a3.432 3.432 0 00-3.431 3.432 3.432 3.432 0 003.432 3.432h18.488a3.432 3.432 0 003.432-3.432 3.432 3.432 0 00-3.432-3.432zM671.754 335.117a3.432 3.432 0 00-3.431-3.432h-14.22a3.432 3.432 0 00-3.431 3.432 3.432 3.432 0 003.432 3.432h14.219a3.432 3.432 0 003.431-3.432zM571.445 346.135h76.468a3.432 3.432 0 013.431 3.432 3.432 3.432 0 01-3.431 3.431h-76.468a3.432 3.432 0 01-3.432-3.431 3.432 3.432 0 013.432-3.432zM658.98 346.135h38.9a3.432 3.432 0 013.431 3.432 3.432 3.432 0 01-3.432 3.431H658.98a3.432 3.432 0 01-3.431-3.431 3.432 3.432 0 013.431-3.432zM214.796 478.824h45.762a3.432 3.432 0 013.432 3.432 3.432 3.432 0 01-3.432 3.431h-45.762a3.432 3.432 0 01-3.432-3.431 3.432 3.432 0 013.432-3.432zM271.626 478.824h14.76a3.432 3.432 0 013.432 3.432 3.432 3.432 0 01-3.431 3.431h-14.761a3.432 3.432 0 01-3.432-3.431 3.432 3.432 0 013.432-3.432zM322.741 478.824h18.49a3.432 3.432 0 013.43 3.432 3.432 3.432 0 01-3.431 3.431h-18.489a3.432 3.432 0 01-3.431-3.431 3.432 3.432 0 013.431-3.432zM297.455 478.824h14.219a3.432 3.432 0 013.431 3.432 3.432 3.432 0 01-3.431 3.431h-14.22a3.432 3.432 0 01-3.431-3.431 3.432 3.432 0 013.432-3.432zM291.263 493.273h-76.467a3.432 3.432 0 00-3.432 3.432 3.432 3.432 0 003.432 3.432h76.467a3.432 3.432 0 003.432-3.432 3.432 3.432 0 00-3.432-3.432zM393.12 478.824h45.762a3.432 3.432 0 013.432 3.432 3.432 3.432 0 01-3.432 3.431H393.12a3.432 3.432 0 01-3.432-3.431 3.432 3.432 0 013.432-3.432zM449.95 478.824h14.761a3.432 3.432 0 013.432 3.432 3.432 3.432 0 01-3.432 3.431h-14.76a3.432 3.432 0 01-3.432-3.431 3.432 3.432 0 013.431-3.432zM501.066 478.824h18.489a3.432 3.432 0 013.431 3.432 3.432 3.432 0 01-3.431 3.431h-18.489a3.432 3.432 0 01-3.432-3.431 3.432 3.432 0 013.432-3.432zM475.78 478.824h14.218a3.432 3.432 0 013.432 3.432 3.432 3.432 0 01-3.432 3.431H475.78a3.432 3.432 0 01-3.432-3.431 3.432 3.432 0 013.432-3.432zM469.588 493.273H393.12a3.432 3.432 0 00-3.432 3.432 3.432 3.432 0 003.432 3.432h76.468a3.432 3.432 0 003.432-3.432 3.432 3.432 0 00-3.432-3.432zM571.445 478.824h45.762a3.432 3.432 0 013.432 3.432 3.432 3.432 0 01-3.432 3.431h-45.762a3.432 3.432 0 01-3.432-3.431 3.432 3.432 0 013.432-3.432zM628.275 478.824h14.76a3.432 3.432 0 013.433 3.432 3.432 3.432 0 01-3.432 3.431h-14.761a3.432 3.432 0 01-3.432-3.431 3.432 3.432 0 013.432-3.432zM679.39 478.824h18.49a3.432 3.432 0 013.431 3.432 3.432 3.432 0 01-3.432 3.431h-18.488a3.432 3.432 0 01-3.432-3.431 3.432 3.432 0 013.432-3.432zM654.104 478.824h14.219a3.432 3.432 0 013.431 3.432 3.432 3.432 0 01-3.431 3.431h-14.22a3.432 3.432 0 01-3.431-3.431 3.432 3.432 0 013.432-3.432zM647.913 493.273h-76.468a3.432 3.432 0 00-3.432 3.432 3.432 3.432 0 003.432 3.432h76.468a3.432 3.432 0 003.431-3.432 3.432 3.432 0 00-3.431-3.432zM234.43 256.361a14.893 14.893 0 01-5.987-4.447l6.277-7.439q3.256 4.242 7.034 4.242a4.756 4.756 0 003.808-1.51 6.568 6.568 0 001.31-4.418v-17.497h-14.068v-8.894h25.46v25.693q0 7.906-3.982 11.859-3.981 3.953-11.714 3.953a20.796 20.796 0 01-8.138-1.542zM274.975 255.17a20.805 20.805 0 010-36.853 25.976 25.976 0 0123.191 0 20.805 20.805 0 010 36.854 25.976 25.976 0 01-23.191 0zm17.177-8.254a10.44 10.44 0 003.951-4.098 13.419 13.419 0 000-12.15 10.446 10.446 0 00-3.951-4.096 11.44 11.44 0 00-11.163 0 10.446 10.446 0 00-3.951 4.096 13.419 13.419 0 000 12.15 10.44 10.44 0 003.951 4.098 11.45 11.45 0 0011.163 0zM351.964 239.679a9.982 9.982 0 011.978 6.248 9.386 9.386 0 01-4.3 8.255q-4.307 2.906-12.442 2.906h-21.973v-40.69h20.81q7.79 0 11.86 2.878a9.03 9.03 0 014.067 7.76 9.67 9.67 0 01-1.423 5.202 9.938 9.938 0 01-4.04 3.634 11.395 11.395 0 015.463 3.807zm-25.342-14.969v7.848h7.905q5.813 0 5.813-3.953 0-3.893-5.813-3.894zm15.695 19.94q0-4.128-6.048-4.128h-9.647v8.253h9.647q6.047 0 6.048-4.125zM418.116 216.398l-17.44 40.69h-11.334l-17.382-40.69H384.4l11.046 26.507 11.276-26.507zM446.366 249.183H429.16l-3.199 7.905h-11.74l17.963-40.69h11.334l18.018 40.69h-11.973zm-3.373-8.486l-5.23-13.022-5.231 13.022zM473.019 255.2a20.217 20.217 0 01-7.995-7.528 22.01 22.01 0 010-21.856 20.205 20.205 0 017.995-7.528 24.064 24.064 0 0111.48-2.703 24.663 24.663 0 0110.055 1.976 19.35 19.35 0 017.44 5.697l-7.324 6.627a12.053 12.053 0 00-9.592-4.767 11.832 11.832 0 00-5.898 1.454 10.073 10.073 0 00-4.012 4.096 13.676 13.676 0 000 12.15 10.068 10.068 0 004.012 4.098 11.832 11.832 0 005.898 1.452 12.05 12.05 0 009.592-4.765l7.325 6.626a19.332 19.332 0 01-7.44 5.696 24.639 24.639 0 01-10.055 1.978 24.082 24.082 0 01-11.481-2.703zM533.676 249.183H516.47l-3.199 7.905h-11.74l17.963-40.69h11.334l18.018 40.69h-11.973zm-3.373-8.486l-5.23-13.022-5.231 13.022zM590.814 216.398v40.69h-9.476l-17.96-21.682v21.682h-11.28v-40.69h9.477l17.963 21.682v-21.682zM607.761 255.2a20.217 20.217 0 01-7.995-7.528 22.01 22.01 0 010-21.856 20.205 20.205 0 017.995-7.528 24.064 24.064 0 0111.48-2.703 24.663 24.663 0 0110.055 1.976 19.35 19.35 0 017.44 5.697l-7.324 6.627a12.053 12.053 0 00-9.592-4.767 11.832 11.832 0 00-5.898 1.454 10.073 10.073 0 00-4.012 4.096 13.676 13.676 0 000 12.15 10.068 10.068 0 004.012 4.098 11.832 11.832 0 005.898 1.452 12.05 12.05 0 009.592-4.765l7.325 6.626a19.332 19.332 0 01-7.44 5.696 24.639 24.639 0 01-10.055 1.978 24.081 24.081 0 01-11.481-2.703zM663.475 242.498v14.59h-11.508v-14.765l-15.521-25.925h12.148l9.65 16.16 9.65-16.16h11.16z" opacity=".35"></path><g opacity=".55"><circle cx="271.96" cy="415.994" r="38.181" fill="#293b68"></circle><circle cx="453.749" cy="415.994" r="38.181" fill="#293b68"></circle><circle cx="635.537" cy="415.994" r="38.181" fill="#293b68"></circle></g><g opacity=".55"><path fill="#fdad4a" d="M228.013 527.37h73.196a1.336 1.336 0 0 1 1.336 1.336v15.063a1.336 1.336 0 0 1-1.336 1.336h-73.196a1.336 1.336 0 0 1-1.337-1.336v-15.063a1.336 1.336 0 0 1 1.337-1.336Z"></path><path fill="#fff" d="M245.165 537.802h-2.03l-.377.932h-1.386l2.12-4.8h1.337l2.126 4.8h-1.413Zm-.398-1.002-.617-1.536-.617 1.536ZM250.665 534.15a1.693 1.693 0 0 1 0 3.113 2.741 2.741 0 0 1-1.131.216h-.837v1.255h-1.358v-4.8h2.195a2.733 2.733 0 0 1 1.131.216Zm-.583 2.077a.644.644 0 0 0 .213-.517.654.654 0 0 0-.213-.521.937.937 0 0 0-.63-.186h-.755v1.406h.754a.949.949 0 0 0 .631-.182ZM255.651 534.15a1.693 1.693 0 0 1 0 3.113 2.741 2.741 0 0 1-1.131.216h-.837v1.255h-1.358v-4.8h2.195a2.733 2.733 0 0 1 1.131.216Zm-.583 2.077a.644.644 0 0 0 .213-.517.654.654 0 0 0-.213-.521.937.937 0 0 0-.63-.186h-.755v1.406h.754a.949.949 0 0 0 .631-.182ZM257.311 533.934h1.358v3.724h2.29v1.076h-3.648ZM263.58 537.013v1.721h-1.359v-1.742l-1.83-3.058h1.433l1.138 1.906 1.139-1.906h1.316ZM272.324 533.934v4.8h-1.118l-2.12-2.558v2.558h-1.33v-4.8h1.118l2.119 2.558v-2.558ZM274.336 538.508a2.455 2.455 0 0 1 0-4.348 3.064 3.064 0 0 1 2.737 0 2.455 2.455 0 0 1 0 4.348 3.069 3.069 0 0 1-2.737 0Zm2.027-.974a1.232 1.232 0 0 0 .466-.483 1.583 1.583 0 0 0 0-1.434 1.236 1.236 0 0 0-.466-.483 1.349 1.349 0 0 0-1.317 0 1.233 1.233 0 0 0-.466.483 1.583 1.583 0 0 0 0 1.434 1.228 1.228 0 0 0 .466.483 1.349 1.349 0 0 0 1.317 0ZM286.452 533.934l-1.557 4.8h-1.454l-.919-2.921-.96 2.921h-1.454l-1.557-4.8h1.4l.966 3.065 1.015-3.065h1.249l.967 3.092 1.007-3.092Z"></path><rect width="75.868" height="17.735" x="415.814" y="527.37" fill="#fdad4a" rx="1.336"></rect><path fill="#fff" d="M434.303 537.802h-2.03l-.377.932h-1.386l2.12-4.8h1.337l2.126 4.8h-1.413Zm-.398-1.002-.617-1.536-.617 1.536ZM439.803 534.15a1.693 1.693 0 0 1 0 3.113 2.74 2.74 0 0 1-1.131.216h-.837v1.255h-1.358v-4.8h2.195a2.732 2.732 0 0 1 1.13.216Zm-.583 2.077a.644.644 0 0 0 .212-.517.654.654 0 0 0-.212-.521.937.937 0 0 0-.631-.186h-.754v1.406h.754a.949.949 0 0 0 .631-.182ZM444.789 534.15a1.693 1.693 0 0 1 0 3.113 2.74 2.74 0 0 1-1.131.216h-.837v1.255h-1.358v-4.8h2.195a2.732 2.732 0 0 1 1.131.216Zm-.583 2.077a.644.644 0 0 0 .213-.517.654.654 0 0 0-.213-.521.937.937 0 0 0-.63-.186h-.755v1.406h.754a.949.949 0 0 0 .631-.182ZM446.449 533.934h1.358v3.724h2.29v1.076h-3.648ZM452.717 537.013v1.721h-1.358v-1.742l-1.83-3.058h1.433l1.138 1.906 1.139-1.906h1.316ZM461.462 533.934v4.8h-1.118l-2.12-2.558v2.558h-1.33v-4.8h1.118l2.119 2.558v-2.558ZM463.474 538.508a2.455 2.455 0 0 1 0-4.348 3.064 3.064 0 0 1 2.737 0 2.455 2.455 0 0 1 0 4.348 3.068 3.068 0 0 1-2.737 0Zm2.027-.974a1.232 1.232 0 0 0 .466-.483 1.583 1.583 0 0 0 0-1.434 1.236 1.236 0 0 0-.466-.483 1.349 1.349 0 0 0-1.317 0 1.232 1.232 0 0 0-.466.483 1.582 1.582 0 0 0 0 1.434 1.227 1.227 0 0 0 .466.483 1.349 1.349 0 0 0 1.317 0ZM475.59 533.934l-1.557 4.8h-1.454l-.919-2.921-.96 2.921h-1.454l-1.557-4.8h1.4l.966 3.065 1.015-3.065h1.249l.967 3.092 1.007-3.092Z"></path><path fill="#fdad4a" d="M606.289 527.37h73.196a1.336 1.336 0 0 1 1.336 1.336v15.063a1.336 1.336 0 0 1-1.336 1.336h-73.196a1.336 1.336 0 0 1-1.337-1.336v-15.063a1.336 1.336 0 0 1 1.337-1.336Z"></path><path fill="#fff" d="M623.44 537.802h-2.03l-.376.932h-1.386l2.12-4.8h1.337l2.126 4.8h-1.413Zm-.397-1.002-.617-1.536-.618 1.536ZM628.94 534.15a1.693 1.693 0 0 1 0 3.113 2.74 2.74 0 0 1-1.13.216h-.837v1.255h-1.358v-4.8h2.195a2.732 2.732 0 0 1 1.13.216Zm-.582 2.077a.644.644 0 0 0 .212-.517.654.654 0 0 0-.212-.521.937.937 0 0 0-.631-.186h-.754v1.406h.754a.949.949 0 0 0 .631-.182ZM633.927 534.15a1.693 1.693 0 0 1 0 3.113 2.74 2.74 0 0 1-1.131.216h-.837v1.255H630.6v-4.8h2.195a2.732 2.732 0 0 1 1.13.216Zm-.583 2.077a.644.644 0 0 0 .213-.517.654.654 0 0 0-.213-.521.937.937 0 0 0-.63-.186h-.755v1.406h.754a.949.949 0 0 0 .631-.182ZM635.587 533.934h1.358v3.724h2.29v1.076h-3.648ZM641.855 537.013v1.721h-1.358v-1.742l-1.83-3.058h1.433l1.138 1.906 1.139-1.906h1.316ZM650.6 533.934v4.8h-1.118l-2.12-2.558v2.558h-1.33v-4.8h1.118l2.119 2.558v-2.558ZM652.612 538.508a2.455 2.455 0 0 1 0-4.348 3.064 3.064 0 0 1 2.737 0 2.455 2.455 0 0 1 0 4.348 3.068 3.068 0 0 1-2.737 0Zm2.027-.974a1.23 1.23 0 0 0 .466-.483 1.582 1.582 0 0 0 0-1.434 1.235 1.235 0 0 0-.466-.483 1.35 1.35 0 0 0-1.317 0 1.232 1.232 0 0 0-.466.483 1.582 1.582 0 0 0 0 1.434 1.228 1.228 0 0 0 .466.483 1.35 1.35 0 0 0 1.317 0ZM664.728 533.934l-1.557 4.8h-1.454l-.919-2.921-.96 2.921h-1.454l-1.557-4.8h1.4l.966 3.065 1.015-3.065h1.249l.967 3.092 1.007-3.092Z"></path></g><path d="M726.183 471.93c-9.773 24.104-24.311 46.1-44.898 62.282-25.775 20.26-59.555 30.162-91.097 37.106-77.666 17.099-157.84 11.454-236.716 11.781a840.63 840.63 0 0 0-101.398 6.256H718.47a25.622 25.622 0 0 0 25.606-25.634V398.24c-2.998 25.271-8.324 50.09-17.893 73.691Z" style="mix-blend-mode:multiply" fill="#1a2326" opacity=".2"></path><path fill="#fff" d="M254.152 168.316h-82.645c41.887 40.272 291.428 318.331 391.917 421.039h126.219c-62.272-56.191-421.933-407.535-435.49-421.04ZM676.492 389.775c-130.95-61.419-257.047-133.74-372.227-221.46h-35.22c14.35 13.664 29.427 26.602 43.841 40.234 27.063 25.593 53.055 52.396 79.07 79.047 46.826 47.97 93.012 96.58 140.838 143.565 45.128 44.335 92.105 86.679 139.24 128.856q16.363 14.643 32.702 29.338h13.733a25.623 25.623 0 0 0 25.607-25.634V420.274q-33.966-14.809-67.584-30.499Z" opacity=".25"></path><path fill="#ff97a6" d="m728.365 750.913 2.419 6.792 10.226-1.117-2.594-7.329-10.051 1.654z"></path><path fill="#1d325b" d="M740.837 754.555a8.83 8.83 0 0 0-4.748 1.353c-1.919 1.412-5.576-.037-6.05-.164-.472-.126-2.483.504-2.69 4.36-.208 3.857-16.012 5.263-19.537 7.72s24.78 4.783 39.164-.506c1.187-7.998-6.14-12.763-6.14-12.763ZM689.051 429.883s-53.3 107.86-34.487 176.202c18.814 68.343 72.268 147.283 72.268 147.283l14.042-2.413s-8.747-83.262-25.672-121.961c0 0 70.51-109.672 59.697-147.412-10.812-37.74-85.848-51.7-85.848-51.7Z"></path><path fill="#ff97a6" d="m858.407 733.594 4.865 5.319 8.991-4.998-5.235-5.748-8.621 5.427z"></path><path fill="#1d325b" d="M871.314 732.109a8.83 8.83 0 0 0-3.85 3.089c-1.22 2.046-5.153 2.13-5.638 2.197-.485.068-2.094 1.428-.788 5.063 1.305 3.635-12.713 11.066-15.008 14.699s24.694-5.212 35.896-15.67c-2.01-7.83-10.612-9.378-10.612-9.378Z"></path><path fill="#223863" d="M697.565 452.994s-7.255 120.092 36.61 175.774c43.868 55.68 123.772 107.683 123.772 107.683l12.004-7.674s-40.38-73.339-71-102.434c0 0 22.411-128.442-2.203-159.026-24.613-30.584-99.183-14.323-99.183-14.323Z"></path><path d="M697.72 471.2c3.196 6.991 9.56 10.136 16.887 10.737 3.45.283 9.168-.084 11.466 3.171 1.217 1.724 1.042 4.278 1.186 6.27a20.524 20.524 0 0 0 3.237 9.284 50.548 50.548 0 0 0 15.854 15.875c6.193 3.8 12.435 4.634 19.55 4.441 4.795-.13 8.824-.02 12.601 3.203 7.406 6.321 11.807 18.062 13.48 27.425 2.381 13.317.083 26.728-1.782 39.952-2.094 14.852-2.048 27.79 4.954 41.429 5.88 11.454 14.037 21.699 21.313 32.278 7.535 10.956 15.43 21.659 23.124 32.503 8.211 11.57 16.123 23.356 23.123 35.636l7.238-4.628s-40.38-73.338-71-102.434c0 0 22.411-128.441-2.203-159.025-24.613-30.584-99.183-14.323-99.183-14.323s-.397 6.567-.444 17.337a3.035 3.035 0 0 1 .599.868Z" style="mix-blend-mode:multiply" fill="#1a2326" opacity=".2"></path><path fill="#ff97a6" d="M582.403 306.077s-4.986-4.971-4.753-7.53c.233-2.559 1.163-12.796-2.283-12.448-3.446.348-3.963 6.419-3.963 6.419s-11.733-17.405-17.939-11.2c-2.808 2.81.935 17.295 7.233 22.371 6.298 5.077 14.84 11.45 14.84 11.45Z"></path><path fill="#fff" d="M680.918 440.769c3.083 12.997 8.51 22.186 16.666 24.53a63.224 63.224 0 0 0 12.55 2.173 81.23 81.23 0 0 0 9.328.154 101.032 101.032 0 0 0 10.376-.894c3.824-.54 7.694-1.28 11.579-2.22 29.355-7.108 35.599 2.266 43.616-23.25 3.577-11.393 12.396-84.18-6.537-126.655-4.425-9.96-16.682-16.482-24.607-21.94-21.26-14.692-37.181-1.62-37.181-1.62-1.542.801-4.369 7.34-5.834 8.559-.385.308-.755.632-1.14.986-15.742 14.107-26.842 49.922-30.543 84.596-2.204 20.475-1.803 40.564 1.727 55.58Z"></path><path fill="#243860" d="m708.279 290.81-66.744 41.665-62.19-30.092s-6.81 3.205-9.547 9.226 44.077 76.602 72.539 72.223 60.184-16.852 60.184-16.852 19.989-77.265 5.758-76.17Z"></path><path fill="#1c282b" d="M680.918 440.769c3.083 12.997 8.51 22.186 16.666 24.53a63.224 63.224 0 0 0 12.55 2.173 81.23 81.23 0 0 0 9.328.154c-1.912-7.23-5.211-17.39-9.559-21.924-7.154-7.415-4.95-29.123 2.744-75.006 6.8-40.548.077-65.016-1.773-71.09-.246-.802-.4-1.296-.431-1.45 0 0-.262.864-.71 2.436-3.36 11.363-17.53 59.743-24.159 86.77.355 17.484-2.729 36.94-4.656 53.407Z" opacity=".29"></path><path fill="#2b3e6d" d="M698.909 396.793s-5.641 77.602-9.488 80.075-46.732-15.547-37.804-27.744c12.804-17.492 17.987-139.023 53.062-156.469 1.23-.611 14.315-5.42 14.315-5.42s-19.81 97.468-20.085 109.558Z"></path><path fill="url(#d)" d="M717.165 289.98s-5.342 96.646-17.432 121.1l-5.77-80.232 9.067-10.166-3.548-12.258Z"></path><path fill="#2b3e6d" d="M720.248 416.378c-.015 7.54.247 14.924.91 21.955 1.51 16.65 5.18 31.19 12.18 40.533a159.558 159.558 0 0 0 35.399-1.758c14.507-2.498 29.956-7.786 38.867-18.748 0 0-4.656-23.465-8.325-84.272-1.203-20.058-2.606-35.106-5.304-46.777-5.458-23.743-19.102-31.296-44.34-40.686-13.06-4.871-19.227 9.434-17.762 29.215 0 0-11.501 53.037-11.625 100.538Z"></path><path d="M768.792 418.957s-22.715 4.397-28.21 3.664l.183 3.297s21.249 7.144 29.126-3.297Z" style="mix-blend-mode:multiply" fill="#1a2326" opacity=".2"></path><path d="M782.28 408.834c9.528 19.04 4.379 50.709-14.153 67.36 14.508-2.498 29.956-7.786 38.868-18.748 0 0-4.657-23.466-8.326-84.273-1.202-20.058-2.606-35.106-5.304-46.777l-35.042-12.027s-3.49 37.36 11.28 40.244c14.786 2.883.79 30.447 12.677 54.221Z" style="mix-blend-mode:multiply" fill="#1a2326" opacity=".2"></path><path fill="#3b527f" d="m711.677 293.028-2.428-12.024s10.074-3.129 11.953 2.336c1.122 3.262.536 4.353.536 4.353Z"></path><path fill="#ff97a6" d="M720.063 265.092s.703 12.939-.704 16.736-8.016 9.844 1.547 11.25 20.955-6.469 20.11-9.844-7.03-5.063-9.562-11.532-1.969-8.719-1.969-8.719Z"></path><path fill="#d66e85" d="M719.36 281.828c1.406-3.797.703-16.736.703-16.736l8.83-1.977a1.49 1.49 0 0 0-.517 1.134c-.14 5.199-4.547 8.88-6.354 13.503-1.405 3.594-2.28 8.458-.04 11.904a8.278 8.278 0 0 0 4.416 3.323 17.957 17.957 0 0 1-5.492.1c-9.563-1.407-2.953-7.454-1.547-11.251Z" opacity=".25"></path><path fill="#36477e" d="M715.422 256.514s-9.423-15.47-6.188-21.517 9.985-.984 15.61 3.094 11.25 1.547 13.642 8.438c2.124 6.125-.985 18.423-8.58 18.001s-14.484-8.016-14.484-8.016Z"></path><path fill="#ff97a6" d="M711.029 267.847c2.43 5.272 15.435 3.599 17.96-2.115l2.146-4.892s3.188-.726 3.346-3.82c.095-2.398-2.114-1.293-2.114-1.293l.504-2.589-17.739-5.713s-.536 1.263-1.294 3.22c-.379 1.01-.79 2.24-1.23 3.535-1.516 4.735-2.936 10.763-1.58 13.667Z"></path><path fill="#ed889b" d="M732.681 256.407s.794-.583 1.006.018a3.367 3.367 0 0 1-1.535 3.106s1.394-1.642 1.218-2.33-1.077-.318-.689-.794Z"></path><path fill="#d66e85" d="M712.607 254.18a35.6 35.6 0 0 0 7.513 2.304c3.061.316 12.31-1.262 12.31-1.262l-18.592-4.577c-.379 1.01-.79 2.24-1.23 3.535Z" opacity=".25"></path><path fill="#36477e" d="M732.86 255.178s-11.04.773-15.118-1.336-6.472-6.541-5.274-8.368c3.127-4.763 24.54-4.64 20.392 9.704Z"></path><path d="M720.529 414.721c-.016 7.54.246 14.924.91 21.955 14.754-34.798 19.78-90.44 19.78-90.44Z" style="mix-blend-mode:multiply" fill="#1a2326" opacity=".2"></path><path fill="#bac8dd" d="m716.898 287.807-.419 5.526 4.764-6.326-4.345.8zM727.683 286.778s2.592 8.689 2.935 8.46 2.858-3.658 2.858-3.658Z"></path><path fill="#ff483e" d="m724.415 288.688-8.06 1.832v11.723s-8.045 64.372-29.858 84.995c-10.075 9.526-25.828 6.595-25.828 6.595l-15.937 3.663 7.144 14.288s20.516 11.174 38.101-.732c39.898-27.014 33.339-106.244 33.339-106.244l4.396-6.961Z"></path><path fill="#1c282b" d="M647.096 401.489a23.978 23.978 0 0 0 8.706 4.688c5.865 1.89 12.508 1.948 18.593 1.386a73.751 73.751 0 0 0 28.412-8.76 55.355 55.355 0 0 1-12.83 12.249c-17.585 11.906-38.101.732-38.101.732l-5.527-11.053c.247.255.482.521.747.758Z" opacity=".29"></path><path fill="#1c282b" d="M726.645 299.496v.042l-.993 1.57a19.033 19.033 0 0 1-2.143 1.294c-1.907 1.041-4.056 2.041-5.547 3.67-1.76 1.925-1.719 4.345-1.764 6.8-.063 3.445 1.059 17.458.707 20.878-3.114 30.225-17.769 49-23.547 44.993 16.663-25.832 22.997-76.5 22.997-76.5V290.52l8.06-1.832 3.036 8.434a3.245 3.245 0 0 0-.806 2.374Z" opacity=".1"></path><path fill="#ff483e" d="M733.933 285.406a12.952 12.952 0 0 1-9.518 3.282l3.297 9.159s5.42-6.724 6.335-7.982-.114-4.459-.114-4.459ZM718.156 283.805s-1.6 4.116 1.257 5.831l-2.934 3.697s-2.21-1.182-.953-4.84 2.63-4.688 2.63-4.688Z"></path><path fill="#dae0ea" d="m727.683 286.778 6.86 8.232.305-11.738-7.165 3.506zM721.243 287.007l-7.66 3.887s2.172-7.432 5.373-8.804Z"></path><path fill="url(#e)" d="m746.444 314.912-10.167 13.463 4.946 17.86-20.882 76.935s2.16-107.276 15.269-132.81Z"></path><path fill="#3b527f" d="m734.619 292.875-.065-13.929s10.074-3.129 11.953 2.336a12.195 12.195 0 0 1 .23 6.487Z"></path><path fill="#ff97a6" d="M792.554 460.198s-1.898 4.313-3.551 4.787c-1.654.473-8.268 2.366-7.218 4.433 1.05 2.067 4.964.922 4.964.922s-7.636 6.625-2.48 9.439c6.305 3.44 10.394-.298 12.04-5.456s3.56-12.03 3.56-12.03Z"></path><path fill="#2b3e6d" d="M841.554 377.174c-7.066 17.87-40.87 87.808-40.87 87.808l-10.675-2.48 15.265-86.243s-88.707-81.02-56.097-89.024c33.536-8.231 99.446 72.076 92.377 89.939Z"></path><path fill="#f2f2e9" d="M145.941 296.908s24.79 15.683 24.79 52.107-19.9 52.108-19.9 52.108Z"></path><path fill="#fdb4a1" d="m107.012 746.888.03 7.282-6.567.251.097-7.393 6.44-.14z"></path><path fill="#2e353c" d="M131.494 761.79s.376-2.348-.712-3.314c-1.088-.967-8.62-3.862-14.826-4.717s-15.942-2.083-17.082-.529c-1.14 1.555-.547 9.19-.547 9.19Z"></path><path fill="#1d325b" d="M126.062 454.952s9.424 62.103 4.008 129.553c-3.344 41.656-21.714 166.05-21.714 166.05l-10.358.225-21.011-167.8S49.154 479.738 51.098 459.596c1.946-20.141 74.964-4.645 74.964-4.645Z"></path><path fill="#fdb4a1" d="m38.551 745.032-.742 7.01-6.337-.253.875-7.107 6.204.35z"></path><path fill="#2e353c" d="M60.504 761.216s.61-2.232-.334-3.244c-.943-1.011-7.875-4.365-13.75-5.655s-15.101-3.205-16.361-1.794c-1.26 1.41-1.498 8.804-1.498 8.804Z"></path><path fill="#2b3e6d" d="m120.03 454.672-81.37-4.59 3.043 159.023-10.557 138.419a9.602 9.602 0 0 0 8.267.987c8.515-3.057 67.946-184.773 80.617-293.839Z"></path><path fill="#f98d3b" d="M134.134 286.098s20.136 8.19 22.61 27.06c2.472 18.87-10.593 159.222-44.811 171.357-10.666 3.782-43.986 26.57-81.735-18.494-12.902-15.403 28.866-152.845 46.542-169.016 17.676-16.173 35.005-22.655 57.394-10.907Z"></path><path d="M105.39 487.328a27.347 27.347 0 0 0-.428-3.662 30.068 30.068 0 0 0-4.726-10.768c-1.818-2.617-4.015-5.026-5.48-7.874-8.69-16.902 14.888-28.887 25.136-37.349 5.615-4.636 11.206-11.425 14.09-18.2.539-1.265 1.556-3.54.647-4.844-.933-1.34-3.182-.794-4.554-.621-3.66.46-7.037 1.107-10.403-.83-5.894-3.393-6.872-9.252-4.288-15.164 1.518-3.472 5.65-8.254 6.22-12.56-5.759 1.289-11.458 2.847-17.258 3.961-9.5 1.827-27.32 4.528-29.7-8.829-1.595-8.941 3.477-19.176 7.408-26.882 4.227-8.288 9.33-16.086 13.79-24.238a74.573 74.573 0 0 0-10.695 5.2c-4.539 2.49-9.07 4.77-13.826 6.817-4.985 2.144-10.222 4.295-15.124 6.958-17.447 46.923-34.99 116.848-26.001 127.577 31.886 38.066 60.61 27.72 75.192 21.308Z" style="mix-blend-mode:multiply" fill="#1a2326" opacity=".2"></path><path fill="#e57c35" d="M128.45 297.237c.27 15.73.181 31.464-.064 47.19q-.396 23.592-1.905 47.142c-.89 15.7-2.267 31.379-4.423 46.953-.978 7.804-2.434 15.533-3.94 23.246l-2.67 11.486-3.515 11.26c5.575-14.756 8.329-30.379 10.614-45.923 2.24-15.581 3.705-31.268 4.674-46.976q1.385-23.568 1.657-47.18c.217-15.734.13-31.474-.429-47.198Z"></path><path fill="#fdb4a1" d="M155.193 250.597s-2.746 34.085-8.837 34.162c-6.09.076-11.65-3.487-11.65-3.487l-6.184 15.81s-4.782.81-11.521-9.09l4.69-15.719-1.573-20.017s25.596-17.381 35.075-1.659Z"></path><path fill="#ea9c8c" d="M154.379 257.72s-10.605.215-14.3-2.27c0 0-3.093 10.255-5.821 7.672s-4.594-8.761-4.594-8.761l8.043-3.777 17.207 3.002Z"></path><path fill="#2b3e6d" d="M137.54 252.297s-1.433 10.925-3.592 9.162-4.284-7.098-4.284-7.098l-7.266 17.538s-3.429 8.431-3.765 1.965-6.049-15.163-5.32-25.224 13.797-22.716 25.063-17.116 29.478 3.048 30.142 8.054-8.031 20.945-30.977 12.72Z"></path><path fill="#ea9c8c" d="m134.573 281.275-5.719-3.927 3.505 9.924 2.214-5.997z"></path><path fill="#e57c35" d="m130.272 292.591-1.75 4.49 6.672-3.381-4.922-1.109z"></path><path fill="#f2f2e9" d="m130.262 292.634 6.386 2.013s-.864-6.268-4.27-7.65Z"></path><path fill="#e57c35" d="m127.268 291.62 1.181 5.617s-5.572-.787-7.069-2.476Z"></path><path fill="#f2f2e9" d="m127.268 291.62-6.992 7.156s-12.014-14.42-1.38-16.824c0 0-1.878 2.909-.631 5.485 1.2 2.478 9.003 4.183 9.003 4.183Z"></path><path fill="url(#f)" d="M388.49 186.902a110.013 110.013 0 0 0-180.436 125.543l-53.76 41.034 11.727 15.386 29.025-22.148 24.735-18.886c.117.126.234.253.33.376a110.026 110.026 0 0 0 168.38-141.305ZM362.191 333.8a100.823 100.823 0 0 1-135.06-11.587c-2.16-2.347-4.26-4.82-6.233-7.408s-3.805-5.248-5.496-7.956a100.82 100.82 0 1 1 146.79 26.951Z"></path><path fill="url(#g)" d="M381.19 192.484a100.82 100.82 0 0 0-165.788 114.364q2.537 4.061 5.496 7.956a104.581 104.581 0 0 0 6.233 7.408A100.818 100.818 0 0 0 381.19 192.484Zm-22.927 136.162a94.355 94.355 0 0 1-126.38-10.859c-2.025-2.196-3.991-4.495-5.829-6.933a91.077 91.077 0 0 1-5.14-7.443 94.332 94.332 0 1 1 137.35 25.235Z"></path><path fill="#fafafa" d="M386.006 294.669a92.034 92.034 0 0 1-9.355 15.399 77.77 77.77 0 0 1-2.956 3.769 94.291 94.291 0 0 1-141.812 3.95c-2.025-2.196-3.991-4.495-5.829-6.933a91.077 91.077 0 0 1-5.14-7.443 94.28 94.28 0 0 1 22.888-124.772 85.996 85.996 0 0 1 4.653-3.327c1.338-.892 2.67-1.74 4.021-2.565a94.358 94.358 0 0 1 133.53 121.922Z" opacity=".25"></path><path fill="url(#h)" d="M184.532 370.34 82.066 448.555a22.095 22.095 0 0 1-26.796-35.139l102.464-78.194a22.087 22.087 0 1 1 26.798 35.116Z"></path><path fill="#36477e" d="M170.596 368.016 68.132 446.211a22.11 22.11 0 0 1-9.906 4.265 22.126 22.126 0 0 1-2.956-37.059l102.464-78.194a22.108 22.108 0 0 1 9.906-4.265 22.126 22.126 0 0 1 2.956 37.058Z" opacity=".5"></path><path fill="url(#i)" d="m219.781 327.831-24.735 18.886a68.92 68.92 0 0 0 6.052-11.186c4.453-9.817-.39-14.423 8.48-20.289 0 0 5.934 8.524 10.203 12.589Z"></path><path fill="#fafafa" d="M373.695 313.837a94.99 94.99 0 0 1-34.329 26.035l-120.27-133.014a94.195 94.195 0 0 1 24.706-28.22 85.996 85.996 0 0 1 4.653-3.326ZM386.006 294.669a92.034 92.034 0 0 1-9.355 15.399l-124.175-137.32a94.203 94.203 0 0 1 16.249-7.773ZM340.467 187.77s47.263 23.169 41.859 52.553-16.253-12.01-20.453-19.286c-9.932-17.206-33.136-34.396-21.406-33.267ZM251.999 321.781s-34.045-18.34-29.25-39.76 11.594 9.275 14.472 14.735c6.807 12.911 23.357 26.185 14.778 25.025Z" opacity=".1"></path><path fill="#ff97a6" d="M65.8 438.585s1.696 3.854 3.173 4.277c1.477.423 7.387 2.114 6.449 3.96-.938 1.847-4.436.825-4.436.825s6.822 5.919 2.216 8.433c-5.633 3.074-9.286-.267-10.757-4.875s-3.18-10.748-3.18-10.748Z"></path><path fill="#f2f2e9" d="M22.022 364.409c6.313 15.966 36.515 78.45 36.515 78.45l9.537-2.215-13.638-77.052s74.098-70.156 44.963-77.308c-29.962-7.354-83.692 62.166-77.377 78.125Z"></path><path fill="#ff97a6" d="M140.46 405.676s9.444 2.529 11.636-1.518.169-6.914.169-6.914 2.53-1.855 2.024-3.204-4.89 3.373-4.89 3.373-5.903-4.216-8.432-2.53-3.542 9.275-.506 10.793Z"></path></g></svg>