<svg xmlns="http://www.w3.org/2000/svg" viewBox="252.433 24.429 859.133 914.399" id="social-media-signup"><ellipse cx="665.797" cy="859.626" fill="#E0E2FF" rx="385.42" ry="50.494"></ellipse><path fill="#263182" d="M1007.416 559.115a.814.814 0 0 1-.701-1.227c.013-.022 1.336-2.278 3.29-6.177a.814.814 0 1 1 1.456.73c-1.981 3.954-3.287 6.18-3.341 6.273a.82.82 0 0 1-.704.401zM373.968 178.549a161.401 161.401 0 0 0-9.26 10.933.814.814 0 1 0 1.289.995 159.218 159.218 0 0 1 9.167-10.822.815.815 0 0 0-1.196-1.106zM384.659 169.846a.812.812 0 0 0 .552-.216 203.912 203.912 0 0 1 10.769-9.259.815.815 0 0 0-1.019-1.271 205.361 205.361 0 0 0-10.855 9.333.814.814 0 0 0 .553 1.413zM341.705 242.091a.815.815 0 0 0 .935-.673 95.85 95.85 0 0 1 3.303-13.729.814.814 0 1 0-1.551-.495 97.41 97.41 0 0 0-3.359 13.963.812.812 0 0 0 .672.934zM340.697 254.667h-.002a.815.815 0 0 0-.812.816 82.2 82.2 0 0 0 1.294 14.337.815.815 0 0 0 1.603-.289 80.505 80.505 0 0 1-1.268-14.052.815.815 0 0 0-.815-.812zM357.646 200.989a.815.815 0 0 0-1.122.262 124.602 124.602 0 0 0-6.867 12.593.815.815 0 0 0 1.473.694 123.027 123.027 0 0 1 6.776-12.427.813.813 0 0 0-.26-1.122zM346.532 283.124a.813.813 0 1 0-1.523.574 80.604 80.604 0 0 0 6.268 12.962.814.814 0 1 0 1.397-.837 78.976 78.976 0 0 1-6.142-12.699zM361.033 307.121a.814.814 0 1 0-1.175 1.127c3.048 3.18 6.767 6.24 11.053 9.095a.812.812 0 0 0 1.129-.226.814.814 0 0 0-.226-1.129c-4.188-2.789-7.815-5.773-10.781-8.867zM537.817 97.589c.06 0 .123-.007.185-.021a576.735 576.735 0 0 1 13.919-3.04.814.814 0 1 0-.328-1.595 576.3 576.3 0 0 0-13.959 3.049.813.813 0 0 0 .183 1.607zM622.28 84.012a.732.732 0 0 0 .081-.004c4.677-.463 9.453-.893 14.197-1.278a.815.815 0 0 0 .746-.877.817.817 0 0 0-.877-.746c-4.753.386-9.54.816-14.226 1.28a.814.814 0 0 0 .079 1.625zM650.723 81.7l.053-.002c4.687-.302 9.476-.57 14.235-.8a.814.814 0 0 0 .774-.852.82.82 0 0 0-.852-.774c-4.767.23-9.565.499-14.261.801a.814.814 0 0 0 .051 1.627zM593.942 87.354c.037 0 .074-.003.112-.007a728.496 728.496 0 0 1 14.138-1.805.816.816 0 0 0 .714-.904.812.812 0 0 0-.904-.713 732.739 732.739 0 0 0-14.169 1.808.815.815 0 0 0 .109 1.621zM565.762 91.836a.808.808 0 0 0 .146-.013c4.6-.834 9.326-1.638 14.049-2.388a.814.814 0 0 0-.256-1.609 657.678 657.678 0 0 0-14.083 2.394.814.814 0 0 0 .144 1.616zM483.063 113.552a.81.81 0 0 0 .276-.048 438.078 438.078 0 0 1 13.476-4.598.813.813 0 1 0-.502-1.549 440.409 440.409 0 0 0-13.526 4.616.814.814 0 0 0 .276 1.579zM510.203 104.766c.075 0 .152-.01.227-.032a502.37 502.37 0 0 1 13.735-3.771.815.815 0 0 0-.409-1.577 505.664 505.664 0 0 0-13.78 3.784.814.814 0 0 0 .227 1.596zM470.483 117.499a.814.814 0 0 0-1.059-.453 376.605 376.605 0 0 0-13.169 5.564.814.814 0 1 0 .663 1.487 373.352 373.352 0 0 1 13.112-5.54.814.814 0 0 0 .453-1.058zM1000.894 420.563a.814.814 0 1 0-1.009 1.278c3.775 2.978 7.221 6.235 10.242 9.677a.814.814 0 1 0 1.224-1.075c-3.085-3.515-6.604-6.84-10.457-9.88zM1021.799 524.912a.816.816 0 0 0-1.026.523 190.319 190.319 0 0 1-4.9 13.341.814.814 0 0 0 1.507.618 192.031 192.031 0 0 0 4.942-13.456.815.815 0 0 0-.523-1.026zM988.943 412.583c-3.997-2.261-8.345-4.365-12.92-6.253a.815.815 0 0 0-.621 1.506c4.514 1.862 8.8 3.936 12.74 6.165a.811.811 0 0 0 1.109-.309.813.813 0 0 0-.308-1.109zM1025.064 456.351a.814.814 0 0 0 .517-1.029 72.613 72.613 0 0 0-5.854-13.16.814.814 0 1 0-1.414.808 70.944 70.944 0 0 1 5.722 12.864.815.815 0 0 0 1.029.517zM1028.845 469.342a.814.814 0 0 0-1.612.23c.61 4.266.919 8.753.919 13.34l-.003.765a.814.814 0 0 0 .807.821h.007c.447 0 .811-.36.814-.807l.003-.779c0-4.663-.314-9.229-.935-13.57zM397.154 328.458c-4.69-1.758-9.083-3.621-13.055-5.538a.813.813 0 1 0-.708 1.466c4.018 1.939 8.456 3.821 13.192 5.596a.812.812 0 0 0 1.048-.477.814.814 0 0 0-.477-1.047zM1028.065 497.104a.81.81 0 0 0-.912.702 142.582 142.582 0 0 1-2.553 13.952.814.814 0 0 0 1.586.37 143.711 143.711 0 0 0 2.582-14.112.815.815 0 0 0-.703-.912zM962.507 401.546a170.762 170.762 0 0 0-5.974-1.681 572.834 572.834 0 0 0-7.859-2 .814.814 0 1 0-.391 1.581c2.638.652 5.25 1.316 7.836 1.994 2.001.524 3.991 1.085 5.917 1.665a.814.814 0 0 0 .471-1.559zM934.75 394.6a720 720 0 0 0-13.989-2.966.817.817 0 0 0-.96.637.816.816 0 0 0 .637.96c4.746.957 9.442 1.953 13.957 2.958a.814.814 0 0 0 .355-1.589zM424.357 336.791a303.778 303.778 0 0 1-13.726-3.797.813.813 0 1 0-.473 1.559 305.755 305.755 0 0 0 13.8 3.817.812.812 0 0 0 .989-.59.813.813 0 0 0-.59-.989zM419.453 142.865a.814.814 0 0 0-1.122-.26 256.714 256.714 0 0 0-11.926 7.901.813.813 0 1 0 .937 1.332 255.91 255.91 0 0 1 11.851-7.852.813.813 0 0 0 .26-1.121zM444.41 129.065a.816.816 0 0 0-1.092-.367 314.376 314.376 0 0 0-12.659 6.652.813.813 0 0 0 .397 1.526c.134 0 .27-.033.395-.102a311.753 311.753 0 0 1 12.594-6.617.816.816 0 0 0 .365-1.092zM906.72 388.934c-4.583-.84-9.32-1.671-14.081-2.468a.806.806 0 0 0-.744.283 15.03 15.03 0 0 1-.131.824.802.802 0 0 0 .605.499c4.753.796 9.482 1.625 14.057 2.464a.815.815 0 0 0 .294-1.602zM452.226 342.815a510.246 510.246 0 0 1-13.986-2.792.812.812 0 0 0-.967.625.816.816 0 0 0 .626.968c4.466.959 9.187 1.901 14.031 2.8a.813.813 0 1 0 .296-1.601zM679.353 80.317a.814.814 0 0 1-.026-1.628c2.339-.077 4.693-.145 7.06-.206.407-.042.823.343.834.793a.814.814 0 0 1-.793.835c-2.362.06-4.712.128-7.048.205l-.027.001z"></path><path fill="#CCD8FF" d="M878.063 337.888c2.468.303 4.955-1.128 6.291-3.222 1.336-2.093 1.629-4.73 1.223-7.181-.407-2.451-1.46-4.748-2.657-6.926-1.981-3.604-4.493-7.062-7.809-9.437a117.745 117.745 0 0 1 18.058-1.22c.55.005 1.099.02 1.648.033l-1.03 12.877c-.229 2.864-.45 5.811.407 8.554.857 2.744 3.06 5.271 5.916 5.621 2.468.303 4.955-1.128 6.291-3.222 1.336-2.093 1.63-4.73 1.223-7.181-.406-2.451-1.46-4.748-2.657-6.926-2.043-3.718-4.651-7.282-8.124-9.659a120.138 120.138 0 0 1 19.945 2.479l-.543 13.087c-.119 2.87-.226 5.824.735 8.532.962 2.709 3.26 5.149 6.127 5.391 2.478.208 4.908-1.318 6.163-3.461s1.447-4.789.946-7.222c-.5-2.433-1.641-4.688-2.921-6.819-2.049-3.411-4.588-6.669-7.835-8.912 4.724 1.109 9.382 2.5 13.936 4.181 1.348.498 2.683 1.029 4.01 1.578l-.115 13.478c-.025 2.873-.035 5.828 1.016 8.504 1.05 2.675 3.427 5.04 6.301 5.187 2.484.127 4.861-1.478 6.045-3.661 1.184-2.183 1.289-4.835.709-7.25-.58-2.416-1.795-4.632-3.144-6.72-1.928-2.983-4.243-5.828-7.077-7.923a113.49 113.49 0 0 1 12.879 6.898l6.159 11.608c1.347 2.539 2.747 5.145 4.945 7 2.198 1.855 5.415 2.806 8.01 1.569 2.244-1.069 3.57-3.611 3.57-6.095 0-2.483-1.171-4.866-2.832-6.716-1.661-1.85-3.785-3.223-5.966-4.419-4.018-2.204-8.495-3.904-13.05-3.798-.013-.009-.023-.02-.037-.028a114.306 114.306 0 0 0-13.721-7.314c3.686.278 7.468-.48 11.017-1.621 2.366-.761 4.711-1.707 6.69-3.209s3.578-3.62 4.045-6.059c.467-2.439-.356-5.186-2.358-6.661-2.316-1.706-5.654-1.382-8.162.024-2.508 1.405-4.372 3.699-6.173 5.937l-8.229 10.228a118.118 118.118 0 0 0-18.109-5.83c3.85-.561 7.53-2.302 10.851-4.393 2.103-1.324 4.138-2.822 5.682-4.768 1.544-1.946 2.566-4.394 2.412-6.873-.154-2.479-1.634-4.937-3.94-5.869-2.667-1.079-5.819.063-7.899 2.046-2.08 1.984-3.315 4.668-4.504 7.283l-5.425 11.945c-.195-.041-.39-.086-.586-.127a121.889 121.889 0 0 0-19.484-2.365c4.199-1.174 7.89-3.879 11.054-6.921 1.79-1.722 3.48-3.601 4.596-5.819 1.117-2.218 1.621-4.823.968-7.22-.653-2.397-2.601-4.505-5.047-4.952-2.83-.517-5.685 1.238-7.319 3.602-1.634 2.363-2.3 5.242-2.933 8.044l-2.984 13.209c-.091-.003-.183-.004-.274-.006l-.068-.109-.009.107c-6.37-.151-12.749.199-19.066 1.064 3.053-2.453 5.375-5.827 7.212-9.326 1.177-2.241 2.206-4.601 2.573-7.105.367-2.505.018-5.186-1.381-7.295-1.4-2.109-3.957-3.523-6.463-3.169-2.899.409-5.094 3.024-5.914 5.834-.82 2.811-.54 5.81-.252 8.724l1.225 12.415-.03.378c-6.93 1.136-13.75 2.9-20.354 5.289-.698.252-.437 1.39.27 1.134a113.853 113.853 0 0 1 19.988-5.224l-.978 12.216c-.229 2.863-.45 5.811.407 8.554.857 2.745 3.06 5.273 5.916 5.623zM417.053 348.455c-12.14-5.672-24.698-9.015-36.848-10.865-.224-.026-.402-.069-.626-.095a146.888 146.888 0 0 0-11.783-1.285c2.249 5.823 1.219 10.981-1.755 15.744.331-7.378-3.118-12.657-10.033-16.006a2.23 2.23 0 0 0-.965-.214c-9.768-.028-18.749.706-26.427 1.693-.223.054-.43.076-.637.097-13.301 1.793-22.472 4.37-24.471 4.934-.27.072-.413.123-.413.123s.052.143.17.395c1.225 2.781 9.207 20.393 24.409 39.602.132.141.248.314.38.454 4.233 5.291 8.997 10.712 14.316 15.957 5.874 4.48 11.738 3.156 15.156 1.243-1.884 3.104-4.337 5.231-8.091 5.331 9.065 7.865 19.474 15.132 31.29 20.653.324.151.68.318 1.019.437l.68.318a125.952 125.952 0 0 0 18.914 6.706c.209.059.386.101.563.146 44.194 11.773 87.755-.256 92.371-1.61.27-.071.412-.123.412-.123s-.052-.142-.17-.395c-1.072-2.432-7.05-15.638-18.293-31.42-.116-.173-.216-.298-.332-.471-3.554-4.973-7.624-10.188-12.255-15.388l-.693-.797c-6.162-6.901-13.218-13.748-21.264-19.993-1.64 3.257-3.072 5.901-3.072 5.901l-4.653-11.483c-5.26-3.52-10.91-6.791-16.899-9.589zm-101.559 8.361c-.373-.806.001-1.775.791-2.116a1.59 1.59 0 0 1 2.115.791 1.59 1.59 0 0 1-.791 2.116c-.79.339-1.742.013-2.115-.791zm3.75 3.96a2.486 2.486 0 0 1 3.325-1.208c1.262.59 1.83 2.078 1.24 3.341a2.549 2.549 0 0 1-3.373 1.225c-1.262-.591-1.781-2.096-1.192-3.358zm44.556 37.42c.408-.874 1.438-1.221 2.312-.813a1.715 1.715 0 1 1-1.452 3.108c-.873-.408-1.268-1.421-.86-2.295zm3.117 7.766c.711-1.521 2.516-2.176 4.005-1.481a3.034 3.034 0 0 1 1.466 4.037c-.696 1.49-2.501 2.145-4.022 1.434a3.019 3.019 0 0 1-1.449-3.99zm4.581-66.366a.809.809 0 0 1 1.092-.397c.421.197.627.686.43 1.108-.196.42-.704.578-1.125.381a.808.808 0 0 1-.397-1.092zm-18.432 2.983a1.921 1.921 0 0 1 2.565-.931 1.922 1.922 0 0 1 .931 2.565 1.922 1.922 0 0 1-2.565.931 1.921 1.921 0 0 1-.931-2.565zm5.317 5.166a.831.831 0 0 1 1.092-.397c.421.197.61.719.429 1.107a.867.867 0 0 1-1.139.414c-.422-.196-.579-.702-.382-1.124z"></path><path fill="#FFF" d="m386.902 359.807 8.156-10.703.425.357-8.387 11.029 7.382 24.469 27.064 12.644-8.045-27.776.508-.158 8.217 28.252 46.91 21.916-6.192-36.218.693.797 3.936 22.979 8.318-7.591c.116.173.216.298.332.471l-8.536 7.805 2.063 12.045 25.057 11.706-.242.519-36.421-17.015-16.145 6.616-.222-.537 15.687-6.396-25.186-11.767-20.585 9.787a4454.532 4454.532 0 0 0-9.79 20.787c-.177-.044-.354-.087-.563-.146 2.934-6.281 7.988-17.013 9.533-20.235l-28.446 13.529-.68-.318 49.852-23.722-50.244-23.473-14.079 9.79-.3-.455 13.796-9.607-21.302-9.952-31.413 13.8c-.131-.14-.248-.313-.38-.454l15.627-6.857c-5.991-2.287-14.534-5.529-15.08-5.626l.041-.256-.033-.015-.257-.041.138-.212c.158-.085.315-.169 15.932 5.827l14.743-6.483-55.521-25.939c-.118-.253-.17-.395-.17-.395s.142-.051.413-.123l43.575 20.358-19.104-25.292c.207-.022.414-.043.637-.097l19.568 25.904 45.615 21.311-14.219-47.146c.224.026.402.069.626.095l6.698 22.212z"></path><path fill="#CCD8FF" d="M920.157 183.404c7.71-10.959 13.2-22.738 17.149-34.377.065-.216.138-.384.203-.6a147.844 147.844 0 0 0 3.329-11.376c-6.127 1.194-11.025-.722-15.193-4.485 7.206 1.618 13.007-.854 17.515-7.076.185-.263.332-.596.38-.912 1.738-9.612 2.588-18.582 2.96-26.315a4.686 4.686 0 0 1 .016-.644c.564-13.409-.368-22.89-.573-24.957-.024-.279-.049-.428-.049-.428s-.15.026-.419.098c-2.952.719-21.69 5.494-43.264 17.097-.161.105-.352.19-.513.294-5.95 3.241-12.121 6.983-18.217 11.301-5.439 4.999-5.163 11.004-3.877 14.704-2.726-2.399-4.391-5.186-3.832-8.899-9.33 7.548-18.308 16.523-25.812 27.191-.206.292-.432.614-.608.926l-.432.614a125.98 125.98 0 0 0-9.914 17.447c-.095.195-.167.363-.242.529-19.329 41.45-15.113 86.444-14.588 91.226.023.278.049.427.049.427s.148-.026.419-.098c2.582-.63 16.63-4.203 34.138-12.509.19-.084.331-.16.522-.244 5.518-2.628 11.365-5.723 17.296-9.371l.906-.543c7.874-4.858 15.85-10.606 23.407-17.435-2.92-2.185-5.272-4.058-5.272-4.058l12.12-2.571c4.383-4.56 8.592-9.549 12.396-14.956zm9.55-101.454c.859-.226 1.748.312 1.945 1.149a1.59 1.59 0 0 1-1.149 1.944 1.59 1.59 0 0 1-1.944-1.149c-.197-.837.291-1.718 1.148-1.944zm-4.556 2.999a2.486 2.486 0 0 1 .607 3.485c-.802 1.14-2.366 1.438-3.506.636a2.548 2.548 0 0 1-.615-3.535c.802-1.14 2.375-1.388 3.514-.586zm-44.643 37.316c.789.555.951 1.63.396 2.419a1.716 1.716 0 0 1-2.806-1.974c.555-.789 1.621-1 2.41-.445zm-8.192 1.708c1.373.966 1.702 2.858.757 4.202a3.034 3.034 0 0 1-4.231.737c-1.345-.946-1.674-2.838-.708-4.211a3.02 3.02 0 0 1 4.182-.728zm64.539 16.131a.81.81 0 0 1 .2 1.145c-.267.38-.785.497-1.166.229-.379-.267-.446-.794-.178-1.175a.807.807 0 0 1 1.144-.199zm.29-18.67a1.92 1.92 0 0 1 .468 2.688 1.922 1.922 0 0 1-2.688.468 1.922 1.922 0 0 1-.468-2.688 1.92 1.92 0 0 1 2.688-.468zm-6.017 4.33a.83.83 0 0 1 .199 1.145c-.267.38-.815.475-1.165.228a.869.869 0 0 1-.208-1.194c.267-.38.794-.446 1.174-.179z"></path><path fill="#FFF" d="m914.259 151.732 9.11 9.904-.426.356-9.39-10.189-25.383 2.983-17.188 24.432 28.756-3.057.066.528-29.254 3.143-29.79 42.348 36.743.246-.906.543-23.313-.148 6.017 9.519c-.19.084-.331.16-.522.244l-6.189-9.771-12.221-.078-15.913 22.62-.468-.329 23.129-32.879-3.687-17.054.568-.125 3.551 16.565 15.995-22.737-6.032-21.98a4415.687 4415.687 0 0 0-18.752-13.279c.075-.166.147-.334.242-.529 5.67 3.989 15.351 10.843 18.254 12.928l-8.339-30.376.432-.614 14.627 53.235 31.908-45.358-7.173-15.575.5-.216 7.043 15.265 13.528-19.231-8.087-33.344c.161-.105.352-.19.513-.294l4.015 16.587c3.301-5.498 7.989-13.341 8.18-13.862l.245.085.021-.03.085-.246.184.174c.056.17.111.339-8.526 14.666l3.802 15.65 35.259-50.122c.269-.072.419-.098.419-.098s.025.149.049.428L918.269 112l28.247-14.381c-.015.208-.03.415-.016.644l-28.93 14.73-28.968 41.179 48.907-5.745c-.065.216-.138.384-.203.6l-23.047 2.705z"></path><path fill="#FFC5F1" d="M462.363 277.186c-8.106-10.669-17.667-19.472-27.56-26.764-.186-.127-.323-.248-.51-.375a147.734 147.734 0 0 0-9.832-6.621c-.719 6.201-4.031 10.287-8.879 13.119 3.726-6.376 3.13-12.654-1.433-18.836a2.236 2.236 0 0 0-.754-.638c-8.633-4.57-16.924-8.099-24.18-10.798-.223-.056-.416-.133-.609-.21-12.607-4.602-21.924-6.588-23.956-7.019-.273-.062-.423-.083-.423-.083s-.021.15-.033.429c-.21 3.031-1.34 22.335 3.177 46.412.051.186.074.393.125.579 1.285 6.653 2.979 13.668 5.246 20.786 3.115 6.699 8.921 8.256 12.837 8.153-3.112 1.871-6.273 2.612-9.642.953 4.364 11.179 10.196 22.456 18.086 32.84.216.285.454.597.698.861l.454.597a126.077 126.077 0 0 0 13.62 14.737c.158.149.295.269.431.391 33.64 30.985 77.795 40.607 82.511 41.557.272.062.422.083.422.083s.02-.15.034-.429c.182-2.652 1.036-17.122-1.571-36.324-.022-.207-.052-.364-.075-.571-.832-6.055-2.008-12.565-3.687-19.323l-.243-1.028c-2.243-8.976-5.302-18.319-9.519-27.591-2.967 2.12-5.465 3.794-5.465 3.794l1.224-12.329c-3.016-5.564-6.494-11.088-10.494-16.352zm-93.784-39.857c.045-.887.827-1.571 1.685-1.505a1.59 1.59 0 0 1 1.504 1.684 1.59 1.59 0 0 1-1.685 1.504c-.857-.065-1.549-.797-1.504-1.683zm1.476 5.251a2.485 2.485 0 0 1 3.505.478c.843 1.11.653 2.69-.457 3.534a2.548 2.548 0 0 1-3.555-.485c-.843-1.11-.602-2.684.507-3.527zm22.026 53.855c.768-.584 1.841-.412 2.425.356a1.716 1.716 0 0 1-2.731 2.076c-.584-.768-.462-1.848.306-2.432zm-.855 8.324c1.337-1.016 3.239-.756 4.233.553a3.034 3.034 0 0 1-.58 4.255c-1.309.995-3.212.735-4.228-.602a3.021 3.021 0 0 1 .575-4.206zm34.937-56.612a.809.809 0 0 1 1.151.157c.281.37.235.899-.135 1.18-.369.281-.892.184-1.173-.186a.808.808 0 0 1 .157-1.151zm-17.703-5.936a1.922 1.922 0 0 1 2.704.369 1.923 1.923 0 0 1-.369 2.704 1.922 1.922 0 0 1-2.704-.369 1.921 1.921 0 0 1 .369-2.704zm2.302 7.047a.83.83 0 0 1 1.151.157c.281.37.205.921-.136 1.18a.869.869 0 0 1-1.201-.164c-.281-.37-.185-.892.186-1.173z"></path><path fill="#FFF" d="m430.393 273.205 12.2-5.679.21.514-12.556 5.86-4.852 25.093 18.072 23.785 5.804-28.329.523.097-5.873 28.83 31.324 41.227 11.373-34.939.243 1.028-7.209 22.171 10.895-2.848c.022.207.052.364.075.571l-11.187 2.936-3.779 11.622 16.732 22.021-.456.346-24.32-32.008-17.369-1.657.053-.579 16.862 1.638-16.818-22.135-22.775-.916a4505.008 4505.008 0 0 0-18.339 13.844c-.136-.122-.273-.242-.431-.391 5.52-4.194 14.987-11.342 17.854-13.476l-31.474-1.262-.454-.597 55.164 2.2-33.55-44.157-17.017 2.114-.054-.542 16.682-2.084-14.225-18.721-34.226-2.402c-.051-.185-.074-.393-.125-.579l17.023 1.203c-4.239-4.812-10.292-11.657-10.73-11.997l.156-.208-.022-.029-.208-.155.221-.123c.179-.002.357-.003 11.391 12.571l16.066 1.122-37.074-48.795c.013-.279.033-.429.033-.429s.15.021.423.083l29.097 38.296-5.141-31.277c.193.077.387.154.609.21l5.267 32.034 30.459 40.089 9.352-48.347c.187.127.324.248.51.375l-4.409 22.781z"></path><path fill="#FFC5F1" d="M944.593 278.429c11.716-6.502 21.792-14.71 30.42-23.463.153-.166.292-.285.444-.451a147.394 147.394 0 0 0 7.955-8.787c-6.035-1.596-9.608-5.456-11.719-10.659 5.78 4.597 12.079 4.902 18.848 1.267.281-.156.559-.392.739-.655 5.755-7.893 10.43-15.596 14.136-22.393.087-.212.191-.392.295-.573 6.353-11.822 9.647-20.761 10.363-22.711.1-.261.142-.406.142-.406s-.146-.042-.42-.094c-2.971-.64-21.916-4.511-46.39-3.473-.191.024-.4.017-.59.041-6.768.323-13.953 1-21.321 2.229-7.074 2.128-9.443 7.653-9.9 11.543-1.408-3.347-1.691-6.581.431-9.68-11.687 2.726-23.68 6.889-35.084 13.219a11.32 11.32 0 0 0-.951.569l-.656.364a126.028 126.028 0 0 0-16.529 11.38c-.17.135-.309.253-.449.371-35.465 28.878-51.285 71.21-52.897 75.742-.101.26-.142.406-.142.406s.145.041.42.095c2.599.559 16.799 3.467 36.177 3.624.208.007.368 0 .576.008 6.112.04 12.723-.196 19.651-.894l1.052-.094c9.204-.94 18.888-2.636 28.667-5.488-1.675-3.239-2.976-5.951-2.976-5.951l12.029 2.97c5.936-2.192 11.899-4.848 17.679-8.056zm52.823-87.143c.872.171 1.437 1.043 1.249 1.882a1.59 1.59 0 0 1-1.882 1.249 1.59 1.59 0 0 1-1.249-1.882c.188-.839 1.011-1.419 1.882-1.249zm-5.408.713a2.485 2.485 0 0 1-.973 3.401c-1.218.676-2.756.262-3.432-.957a2.548 2.548 0 0 1 .987-3.45c1.219-.675 2.742-.212 3.418 1.006zm-56.445 14.122c.468.844.145 1.881-.698 2.349a1.716 1.716 0 0 1-1.664-2.999c.842-.468 1.894-.194 2.362.65zm-8.117-2.033c.815 1.468.286 3.314-1.151 4.112a3.034 3.034 0 0 1-4.129-1.181c-.798-1.438-.269-3.284 1.199-4.099a3.019 3.019 0 0 1 4.081 1.168zm51.052 42.651a.808.808 0 0 1-.319 1.117c-.406.226-.923.105-1.149-.302-.225-.406-.055-.909.352-1.135a.809.809 0 0 1 1.116.32zm8.399-16.676a1.92 1.92 0 0 1-.751 2.623 1.921 1.921 0 0 1-2.623-.751 1.921 1.921 0 0 1 .751-2.623 1.921 1.921 0 0 1 2.623.751zm-7.302 1.274a.83.83 0 0 1-.32 1.117c-.406.226-.94.072-1.148-.303a.867.867 0 0 1 .334-1.165c.405-.225.908-.056 1.134.351z"></path><path fill="#FFF" d="m953.093 247.354 3.881 12.884-.538.135-4.01-13.263-24.145-8.381-26.119 14.496 27.213 9.784-.17.504-27.698-9.924-45.272 25.126 32.961 16.238-1.052.094-20.917-10.296 1.266 11.19c-.208-.007-.368 0-.576-.008l-1.311-11.492-10.964-5.397-24.182 13.421-.278-.501 35.149-19.507 4.116-16.955.565.135-4.026 16.456 24.307-13.49 4.154-22.411a4337.55 4337.55 0 0 0-11.088-20.125c.14-.117.278-.236.449-.371 3.364 6.061 9.089 16.451 10.792 19.593l5.737-30.973.656-.364-10.043 54.287 48.489-26.911.334-17.145.544.024-.316 16.809 20.558-11.41 7.258-33.534c.19-.024.399-.017.59-.041l-3.617 16.678c5.367-3.509 13.005-8.524 13.404-8.91l.184.184.032-.018.184-.184.09.236c-.024.177-.048.354-14.067 9.482l-3.401 15.742 53.583-29.738c.274.052.42.094.42.094s-.042.145-.142.406l-42.054 23.339 31.69-.629c-.104.18-.208.361-.295.573l-32.458.645-44.022 24.432 46.52 16.15c-.152.167-.292.285-.444.451l-21.921-7.61z"></path><path fill="#FFF" d="M829.306 861.731H516.063c-26.825 0-48.571-21.746-48.571-48.571V197.028h410.384V813.16c0 26.825-21.746 48.571-48.57 48.571z"></path><path fill="#A6BAFC" d="M842.978 141.058H502.37c-23.13 0-41.869 18.74-41.869 41.865v638.828c0 12.615 5.598 23.948 14.445 31.629.297.249.593.503.89.754 7.223 5.942 16.477 9.482 26.533 9.482h340.608c10.055 0 19.312-3.54 26.533-9.482 9.371-7.68 15.357-19.337 15.357-32.383V182.923c.001-23.125-18.762-41.865-41.889-41.865zm33.016 664.375c0 24.28-20.814 43.961-46.491 43.961H515.867c-25.676 0-46.492-19.681-46.492-43.961V224.366c0-15.101 12.947-27.339 28.917-27.339H847.08c15.97 0 28.914 12.238 28.914 27.339v581.067z"></path><path fill="#FFF" d="M528.009 170.387c0 7.433-6.036 13.469-13.472 13.469s-13.472-6.036-13.472-13.469c0-7.439 6.036-13.475 13.472-13.475s13.472 6.036 13.472 13.475z"></path><path fill="#A6BAFC" d="M523.651 170.386c0 5.03-4.082 9.114-9.114 9.114-5.03 0-9.116-4.084-9.116-9.114 0-5.032 4.085-9.116 9.116-9.116s9.114 4.084 9.114 9.116z"></path><path fill="#FFF" d="M555.588 170.386c0 5.03-4.084 9.114-9.116 9.114s-9.114-4.084-9.114-9.114c0-5.032 4.082-9.116 9.114-9.116 5.032 0 9.116 4.084 9.116 9.116z"></path><path fill="#CCCFFF" d="M552.869 234.343h-55.034a2.601 2.601 0 0 1-2.601-2.601v-1.289a2.601 2.601 0 0 1 2.601-2.601h55.034a2.601 2.601 0 0 1 2.601 2.601v1.288a2.601 2.601 0 0 1-2.601 2.602zM552.869 251.998h-55.034a2.601 2.601 0 0 1-2.601-2.601v-1.289a2.601 2.601 0 0 1 2.601-2.601h55.034a2.601 2.601 0 0 1 2.601 2.601v1.289a2.6 2.6 0 0 1-2.601 2.601zM552.869 269.654h-55.034a2.601 2.601 0 0 1-2.601-2.601v-1.289a2.601 2.601 0 0 1 2.601-2.601h55.034a2.601 2.601 0 0 1 2.601 2.601v1.288a2.601 2.601 0 0 1-2.601 2.602zM708.028 778.722H520.744c-2.081 0-3.769-.842-3.769-1.88 0-1.039 1.687-1.881 3.769-1.881h187.284c2.081 0 3.769.842 3.769 1.881 0 1.038-1.688 1.88-3.769 1.88zM803.988 816.04h-181.05c-2.081 0-3.769-.842-3.769-1.88 0-1.039 1.687-1.881 3.769-1.881h181.05c2.081 0 3.769.842 3.769 1.881 0 1.038-1.688 1.88-3.769 1.88zM805.438 778.722h-75.957c-2.081 0-3.77-.842-3.77-1.88 0-1.038 1.689-1.88 3.77-1.88h75.957c2.081 0 3.769.842 3.769 1.88 0 1.038-1.688 1.88-3.769 1.88zM550.894 796.367h-30.15c-2.081 0-3.769-.842-3.769-1.88 0-1.038 1.687-1.88 3.769-1.88h30.15c2.083 0 3.769.842 3.769 1.88 0 1.039-1.686 1.88-3.769 1.88zM591.627 816.039h-70.883c-2.081 0-3.769-.842-3.769-1.88 0-1.038 1.687-1.88 3.769-1.88h70.883c2.081 0 3.769.842 3.769 1.88 0 1.038-1.688 1.88-3.769 1.88zM805.438 796.367h-36.239c-2.081 0-3.769-.842-3.769-1.88 0-1.039 1.687-1.88 3.769-1.88h36.239c2.081 0 3.769.841 3.769 1.88 0 1.038-1.688 1.88-3.769 1.88zM743.904 796.367H576.697c-2.081 0-3.769-.842-3.769-1.88 0-1.038 1.687-1.88 3.769-1.88h167.207c2.081 0 3.769.842 3.769 1.88 0 1.038-1.688 1.88-3.769 1.88z"></path><ellipse cx="672.685" cy="381.544" fill="#839FFC" rx="88.839" ry="88.838" transform="rotate(-58.041 672.687 381.555)"></ellipse><circle cx="671.362" cy="356.415" r="34.488" fill="#FFF"></circle><path fill="#FFF" d="M702.994 391.182c-2.776-2.169-6.655-2.092-9.384.134a34.374 34.374 0 0 1-21.801 7.761 34.246 34.246 0 0 1-21.216-7.311c-2.782-2.182-6.725-2.138-9.409.164-6.958 5.966-11.195 14.57-11.195 25.753v1.008c0 5.783 4.689 10.471 10.472 10.471h64.448c5.783 0 10.472-4.688 10.472-10.471v-1.008c-.001-11.663-4.734-20.522-12.387-26.501z"></path><path fill="#839FFC" d="M772.51 568.83H572.859a8.173 8.173 0 0 1-8.173-8.173v-42.789a8.173 8.173 0 0 1 8.173-8.173H772.51a8.173 8.173 0 0 1 8.173 8.173v42.789a8.173 8.173 0 0 1-8.173 8.173z"></path><path fill="#CCCFFF" d="M730.336 600.199H614.217a1.55 1.55 0 0 1-1.55-1.55v-2.835c0-.856.694-1.55 1.55-1.55h116.119c.856 0 1.55.694 1.55 1.55v2.835a1.55 1.55 0 0 1-1.55 1.55zM770.978 622.56H573.575a1.55 1.55 0 0 1-1.55-1.55v-2.835c0-.856.694-1.55 1.55-1.55h197.404c.856 0 1.55.694 1.55 1.55v2.835a1.552 1.552 0 0 1-1.551 1.55z"></path><path fill="#FFF" d="m581.854 540.189 8.886-.556c.193 1.443.585 2.543 1.176 3.298.962 1.224 2.336 1.835 4.124 1.835 1.333 0 2.36-.313 3.082-.938s1.083-1.351 1.083-2.176c0-.783-.344-1.485-1.031-2.103-.687-.619-2.281-1.203-4.783-1.753-4.097-.92-7.017-2.144-8.763-3.67-1.759-1.526-2.639-3.471-2.639-5.835 0-1.553.45-3.021 1.35-4.402.901-1.381 2.254-2.467 4.062-3.257 1.807-.79 4.285-1.186 7.433-1.186 3.862 0 6.807.719 8.834 2.155 2.027 1.436 3.233 3.721 3.619 6.855l-8.804.515c-.234-1.361-.725-2.35-1.474-2.968-.749-.619-1.784-.928-3.103-.928-1.085 0-1.904.231-2.453.691-.55.46-.824 1.02-.824 1.681 0 .481.227.914.68 1.299.44.398 1.485.77 3.134 1.113 4.082.88 7.006 1.769 8.773 2.67 1.766.901 3.051 2.017 3.855 3.35.804 1.334 1.206 2.825 1.206 4.474a9.586 9.586 0 0 1-1.608 5.361c-1.072 1.636-2.57 2.876-4.495 3.722-1.924.845-4.35 1.268-7.278 1.268-5.141 0-8.701-.99-10.681-2.969-1.98-1.979-3.1-4.494-3.361-7.546zM613.729 519.964h8.392v5.711h-8.392v-5.711zm0 8.329h8.392v21.896h-8.392v-21.896zM642.718 528.293h7.855v20.68l.021.969a9.14 9.14 0 0 1-.876 3.928c-.585 1.244-1.361 2.251-2.329 3.021-.97.77-2.2 1.327-3.691 1.67-1.492.344-3.199.516-5.123.516-4.399 0-7.419-.66-9.061-1.98-1.643-1.319-2.464-3.086-2.464-5.299 0-.275.014-.647.041-1.113l8.145.928c.206.755.522 1.278.948 1.567.618.426 1.395.639 2.33.639 1.209 0 2.114-.323 2.711-.969.598-.646.897-1.773.897-3.381v-3.32c-.824.976-1.649 1.684-2.474 2.123a8.767 8.767 0 0 1-4.185 1.031c-2.928 0-5.292-1.278-7.092-3.835-1.279-1.814-1.918-4.212-1.918-7.195 0-3.409.824-6.006 2.474-7.794 1.65-1.786 3.807-2.68 6.474-2.68 1.704 0 3.11.289 4.216.867 1.107.577 2.141 1.533 3.103 2.866v-3.239zm-7.897 10.618c0 1.581.336 2.753 1.01 3.516.674.763 1.56 1.144 2.66 1.144 1.044 0 1.921-.395 2.629-1.185s1.062-1.983 1.062-3.578c0-1.594-.371-2.814-1.113-3.659-.742-.845-1.65-1.268-2.722-1.268s-1.927.389-2.567 1.165c-.639.776-.959 2.065-.959 3.865zM655.644 528.293h7.814v3.567c1.169-1.457 2.351-2.498 3.547-3.123 1.196-.625 2.652-.939 4.371-.939 2.322 0 4.14.691 5.453 2.073 1.312 1.381 1.969 3.515 1.969 6.402v13.917h-8.433v-12.041c0-1.374-.254-2.347-.762-2.917-.509-.571-1.224-.855-2.144-.855-1.018 0-1.842.385-2.475 1.154-.632.77-.948 2.151-.948 4.144v10.515h-8.392v-21.897zM718.116 519.964h9.32v18.008c0 1.785-.279 3.471-.835 5.058a10.93 10.93 0 0 1-2.618 4.162c-1.189 1.189-2.437 2.023-3.742 2.503-1.815.673-3.993 1.01-6.536 1.01a40.94 40.94 0 0 1-4.815-.31c-1.739-.206-3.192-.614-4.361-1.226-1.168-.611-2.237-1.48-3.206-2.607-.97-1.126-1.633-2.287-1.99-3.482-.577-1.923-.866-3.626-.866-5.11v-18.008h9.319V538.4c0 1.648.457 2.936 1.371 3.862.914.928 2.182 1.391 3.804 1.391 1.608 0 2.869-.457 3.783-1.37.914-.913 1.371-2.207 1.371-3.883v-18.436zM733.105 558.519v-30.226h7.855v3.237c1.086-1.361 2.083-2.282 2.99-2.763 1.224-.646 2.577-.97 4.062-.97 2.928 0 5.192 1.12 6.794 3.361 1.601 2.241 2.403 5.01 2.403 8.309 0 3.643-.874 6.422-2.619 8.34-1.746 1.917-3.951 2.876-6.618 2.876-1.292 0-2.471-.221-3.536-.66a8.425 8.425 0 0 1-2.856-1.958v10.453h-8.475zm8.413-19.216c0 1.732.364 3.017 1.093 3.855.728.839 1.65 1.258 2.763 1.258.976 0 1.794-.402 2.453-1.206.66-.804.99-2.168.99-4.093 0-1.773-.344-3.075-1.032-3.907-.687-.832-1.525-1.247-2.515-1.247-1.072 0-1.965.419-2.68 1.258-.715.839-1.072 2.199-1.072 4.082z"></path><path fill="#FFCBC7" d="M946.979 848.636c.234 3.063-3.194 6.274-3.38 9.423 13.029 2.785 26.168 5.051 39.304 7.352-1.87-8.892-11.978-10.434-20.312-12.71-2.732-.746-4.587-3.279-4.518-6.11 1.259-51.775 22.679-110.506 10.765-161.14-4.101-.093-4.396 1.134-9.212.937-4.816-.198-13.057-.771-18.587-1.114-1.633 48.268 5.617 159.127 5.94 163.362z"></path><path fill="#FFCBC7" d="M870.551 799.859c-2.923-1.016-6.327 2.159-9.271 1.412 2.639 12.069 6.524 19.483 12.05 30.58 2.29-4.675 2.121-10.538 2.173-16.124a9.838 9.838 0 0 1 7.173-9.371c15.923-4.498 50.27-15.676 55.601-27.386 11.72-25.744 27.694-55.159 21.712-92.578-7.743-.241-15.487-.912-23.201-1.276-14.442 20.788-18.152 76.604-21.769 82.738-7.014 11.898-41.192 27.835-44.468 32.005z"></path><path fill="#263182" d="M974.482 856.423c3.225 1.57 13.453 3.014 10.877 9.115-2.578 6.101-33.952.058-39.473-3.151-5.521-3.209-.412-9.549 1.262-13.264 4.959 9.907 19.492 15.24 29.133 11.101 3.626-1.558-1.171-3.156-1.799-3.801zM875.321 823.342s2.091 14.279-3.37 13.154c-5.461-1.124-14.93-27.059-12.635-32.667 2.622-6.405 9.032-4.857 11.147-4-7.834 5.457-3.717 22.29 2.425 26.436 2.136 1.441 2.433-2.923 2.433-2.923zM898.183 763.981s7.358 8.13 14.273 6.447c0 0 7.661 11.608 19.694 3.591 9.119 5.642 18.226 5.642 27.345 0 12.022 8.017 19.695-3.591 19.695-3.591 6.915 1.683 14.272-6.447 14.272-6.447-6.602-31.074-20.875-57.615-24.335-79.693l-33.12 1.096c-10.237 10.189-16.791 52.715-37.824 78.597zM951.316 587.46c3.377 3.593 4.797 9.98 1.994 14.318-2.207 4.529-2.163 9.826-1.729 14.774-1.08-4.949-1.191-10.457 1.14-15.081 2.769-4.159 1.519-10.263-1.405-14.011z"></path><path fill="#FFCBC7" d="M987.757 570.529c.053-.053 1.032-.661 1.049-3.71.005-.908-1.811-5.98-.071-6.991 1.316-.765 2.582 3.899 2.916 3.784 2.836-.979 3.863-10.589 7.421-9.522 1.959.588.16 9.661-2.918 14.197-.342.504-.32 4.626-.32 4.626l-8.077-2.384z"></path><path fill="#263182" d="M952.379 601.356c2.308-4.904 3.086-13.341-4.771-16.163-5.716-2.054-10.52-2.137-15.718 1.785-5.198 3.922-7.213 12.541-6.111 18.717 1.321 7.402-7.432 13.824-4.016 19.83 4.588 8.068 27.61 1.154 35.502-.043-5.171-8.435-10.226-12.777-4.886-24.126z"></path><path fill="#AABCFA" d="M951.051 642.669c10.346-3.616 29.353-20.633 34.092-28.662 2.173-5.2 9.559-33.397 11.431-40.595a1.987 1.987 0 0 0-1.224-2.352 36.158 36.158 0 0 0-6.494-1.83 1.986 1.986 0 0 0-2.226 1.28l-12.52 34.93c-4.824 3.119-34.542 16.052-37.404 26.228-2.289 8.144 4.177 14.555 14.345 11.001z"></path><path fill="#A0B4FA" d="M995.35 571.06a36.038 36.038 0 0 0-.831-.307c-1.968 7.562-9.219 35.208-11.368 40.351-13.257 24.541-21.044 13.326-29.269 13.326-5.329 0-1.532 14.186-4.822 15.336-5.294 1.851-9.581.996-12.155-1.395 1.783 4.411 7.065 6.772 14.147 4.297 10.346-3.616 29.353-20.633 34.092-28.662 2.173-5.199 9.559-33.397 11.431-40.595a1.986 1.986 0 0 0-1.225-2.351z"></path><path fill="#85A1FF" d="M970.783 687.532c-.063.259-.21.494-.431.663-7.718 5.942-24.751.548-35.519-.254a1.792 1.792 0 0 1-1.653-1.904c1.648-23.341-15.948-47.454 6.228-65.391 3.334-.082 6.826-1.099 10.007-.098 16.682 5.252 19.489 21.835 19.983 37.952.298 9.834-.264 19.494.936 26.301l.016.082c.03.188.066.371.101.554.101.502.21.987.333 1.454a1.3 1.3 0 0 1-.001.641z"></path><path fill="#6986E6" d="M969.397 658.5c-.102 9.214.323 25.35.936 26.301-5.545-5.388-6.423-15.084-11.789-18.234-7.436-4.365-16.383-12.312-16.383-12.312l8.874.819 18.362 3.426z"></path><path fill="#FFCBC7" d="M938.925 622.804a48.04 48.04 0 0 1-1.239-.679c.655-3.069 1.119-9.665 1.271-13.676.038-1.039.057-1.901.052-2.488 1.814 1.514 5.153 2.275 6.479 4.297 1.326 2.019 2.33 9.499 2.428 9.922 1.771 7.477-5.147 4.64-8.991 2.624z"></path><path fill="#FABAB4" d="M946.825 614.86s-3.627-.404-5.565-.493c-2.336-.107-2.327 6.588-2.335 8.437a48.04 48.04 0 0 1-1.239-.679c.655-3.069 1.119-9.665 1.271-13.676 3.072 2.494 7.868 6.411 7.868 6.411z"></path><path fill="#FFCBC7" d="M951.013 612.828c4.047-1.811 3.047-15.244-.314-19.516-3.432 4.375-9.546 4.281-14.474 2.725.413 1.105.247 4.733 1.097 6.137-.798-1.319-3.622-1.142-3.127 1.454.451 2.368 1.93 2.911 4.012 3.621 1.841 4.992 7.416 7.991 12.806 5.579z"></path><path fill="#FFF" d="M1007.237 605.44a19.451 19.451 0 0 0-5.341-2.364c-.281-.077-.563-.15-.849-.215-2.953-.683-6.06-.751-9.253-.468a49.456 49.456 0 0 0-2.912.346c-.142.019-.284.039-.427.062a40.549 40.549 0 0 1-2.763-10.532 41.197 41.197 0 0 1-.177-1.674l.414-.12.461-.135.452-.135a65.539 65.539 0 0 0 2.003-.629c2.882-.959 5.623-2.167 7.883-4.242.221-.203.438-.415.648-.634 1.315-1.366 2.439-3.073 3.299-5.26l6.562 26z"></path><path fill="#D8DAEB" d="m1006.614 602.977-5.94-23.534c-.095.243-.195.478-.297.709l6.237 22.825z"></path><path fill="#CFD2EB" d="M1007.236 605.44c-5.066-3.237-10.841-3.614-16.889-2.896-.175.02-.351.043-.527.065l-.104.013-.351.048c-.083.01-.165.021-.247.034-.079.01-.159.023-.237.035-.111.015-.224.03-.336.048l-.091.013a39.649 39.649 0 0 1-.607-1.554c.073.173.145.346.221.517.011-.003.021-.003.031-.006.13-.025.262-.05.392-.07l.208-.04c.091-.017.182-.032.272-.047l.323-.056c.043-.009.085-.015.129-.022.162-.027.326-.053.488-.078 6.014-.942 11.779-.778 16.893 2.283l.432 1.713z"></path><path fill="#4E6FD9" d="M1015.7 589.453c1.857 7.71-.602 14.916-5.493 16.094-4.891 1.178-10.362-4.117-12.219-11.828s.602-14.916 5.493-16.094c4.891-1.178 10.362 4.118 12.219 11.828z"></path><path fill="#FFF" d="m978.073 593.385 2.475 10.273c-1.246.219-4.104 1.206-5.351.987-3.222-.238-5.578-3.757-4.51-6.857.815-3.242 4.645-3.789 7.386-4.403z"></path><path fill="#CFD2EB" d="m980.376 602.948.171.71c-1.246.219-4.104 1.206-5.351.987-3.222-.238-5.578-3.757-4.51-6.857.167-.53.423-1.033.747-1.486-1.552 3.06.727 7.146 4.116 7.452 1.239.255 3.6-.56 4.827-.806z"></path><path fill="#BDC3FF" d="M1014.402 589.765c1.585 6.582-.334 12.689-4.289 13.642-1.453.35-2.979-.045-4.404-1.011-1.03-.695-2.006-1.687-2.869-2.91a16.143 16.143 0 0 1-.869-1.381l-.046-.085a19.262 19.262 0 0 1-1.845-4.805 19.654 19.654 0 0 1-.555-4.712v-.027c.015-1.443.208-2.794.561-3.988.758-2.574 2.253-4.423 4.284-4.913 3.957-.954 8.447 3.61 10.032 10.19z"></path><path fill="#4E6FD9" d="M990.797 614.845a.406.406 0 0 1-.476-.254c-.83-2.268-2.194-3.442-3.127-5.288-1.155-2.285-1.048-5.591-3.538-7.416l-4.574 1.102 6.162 12.667a.422.422 0 0 1-.28.594.415.415 0 0 0-.306.5l.349 1.45a.415.415 0 0 0 .5.306l5.834-1.405a.415.415 0 0 0 .306-.5l-.349-1.45a.416.416 0 0 0-.501-.306z"></path><path fill="#505FEB" d="M986.42 617.647a.414.414 0 0 1-.5-.306l-.349-1.45a.414.414 0 0 1 .305-.5.421.421 0 0 0 .28-.594l-5.884-12.096-1.191.287 6.162 12.667a.422.422 0 0 1-.28.594.415.415 0 0 0-.306.5l.349 1.45a.415.415 0 0 0 .5.306l5.834-1.405a.415.415 0 0 0 .306-.5l-.048-.201-5.178 1.248z"></path><path fill="#A8AEF0" d="M1008.795 601.84c-1.03-.695-2.006-1.687-2.869-2.909a16.008 16.008 0 0 1-.915-1.467 19.262 19.262 0 0 1-1.845-4.805 19.646 19.646 0 0 1-.549-4.09c-.006-.21-.008-.417-.006-.623v-.027c.015-1.443.208-2.793.562-3.988.595-2.023 1.649-3.596 3.058-4.415a4.646 4.646 0 0 0-1.861.058c-2.031.489-3.527 2.339-4.284 4.913-.353 1.195-.547 2.545-.561 3.988v.027a19.57 19.57 0 0 0 .555 4.712 19.232 19.232 0 0 0 1.891 4.89c.274.487.563.948.869 1.381.863 1.223 1.839 2.215 2.869 2.91 1.425.966 2.951 1.361 4.404 1.011a4.559 4.559 0 0 0 1.227-.498c-.859-.142-1.719-.508-2.545-1.068z"></path><path fill="#4E6FD9" d="M976.645 592.943c-1.31.511-2.005 2.12-1.615 3.74l1.329 5.519c.39 1.62 1.741 2.736 3.14 2.594 2.244-.234 4.942-.412 7.127-.636 1.52-.156 2.566-1.533 2.097-2.787-1.248-3.335-2.02-6.756-2.379-10.28-.098-.962-1.203-1.524-2.238-1.14-2.569.953-4.966 1.998-7.461 2.99z"></path><path fill="#FFF" d="m1009.116 594.134-7.191 3.886a19.262 19.262 0 0 1-1.845-4.805 19.654 19.654 0 0 1-.555-4.712v-.027l8.363.753 1.228 4.905z"></path><path fill="#E6E7F5" d="M1004.049 595.83a1.813 1.813 0 0 1-2.536-.887 20.08 20.08 0 0 1-.981-3.015 19.896 19.896 0 0 1-.518-3.409l-.489-.044v.027a19.57 19.57 0 0 0 .555 4.712 19.232 19.232 0 0 0 1.845 4.805l7.191-3.886-.229-.919-4.838 2.616z"></path><path fill="#4E6FD9" d="M1010.419 591.312c.341 1.417-.141 2.749-1.078 2.975-.936.225-1.972-.74-2.314-2.158-.341-1.417.141-2.749 1.077-2.975.938-.226 1.974.741 2.315 2.158z"></path><path fill="#4A59DB" d="M1010.202 591.364c.298 1.236-.069 2.385-.819 2.565-.75.181-1.6-.675-1.897-1.911-.298-1.236.069-2.384.819-2.565.75-.18 1.599.675 1.897 1.911z"></path><path fill="#FFF" d="M1008.517 591.867c-.092-.38-.01-.726.183-.772.193-.047.423.224.515.604.092.38.01.726-.184.772-.192.046-.423-.224-.514-.604z"></path><path fill="#505FEB" d="M986.962 602.646c-2.185.224-4.884.402-7.127.636-1.399.141-2.75-.975-3.14-2.595l-1.329-5.519a3.851 3.851 0 0 1-.108-.889c-.333.691-.433 1.544-.227 2.403l1.329 5.519c.39 1.62 1.741 2.736 3.14 2.594 2.244-.234 4.942-.412 7.127-.636 1.426-.146 2.435-1.368 2.167-2.553-.388.55-1.045.959-1.832 1.04z"></path><path fill="#FFF" d="m981.12 595.016-3.135.755a.861.861 0 0 1-.403-1.673l3.134-.755a.86.86 0 1 1 .404 1.673z"></path><path fill="#CFD2EB" d="m981.781 594.479-3.897.938a.468.468 0 0 1-.565-.345l-.184-.763a.599.599 0 0 1-.013-.092.468.468 0 0 0-.267.538l.184.762a.469.469 0 0 0 .565.346l3.897-.939a.467.467 0 0 0 .358-.473.516.516 0 0 1-.078.028z"></path><path fill="#FFF" d="m978.71 597.568-.487.117a.642.642 0 1 1-.301-1.249l.487-.117a.642.642 0 1 1 .301 1.249z"></path><path fill="#CFD2EB" d="m979.123 597.317-1.112.268a.322.322 0 0 1-.388-.237l-.151-.625a.322.322 0 0 1-.002-.138.322.322 0 0 0-.099.313l.151.625a.32.32 0 0 0 .388.237l1.112-.268a.32.32 0 0 0 .239-.25.31.31 0 0 1-.138.075z"></path><path fill="#FFF" d="M980.444 596.489a.762.762 0 1 1 1.482-.357.762.762 0 0 1-1.482.357z"></path><path fill="#CFD2EB" d="M981.428 596.934a.762.762 0 0 1-.876-1.044.759.759 0 0 0-.108.6c.099.409.51.661.92.563a.757.757 0 0 0 .518-.439.761.761 0 0 1-.454.32z"></path><path fill="#4A59DB" d="M976.308 604.638c-.375.04-.747.043-1.112.007-2.38-2.425-3.288-6.902-2.718-9.431a5.233 5.233 0 0 1 1.054-.637c-1.011 2.66.108 7.361 2.776 10.061z"></path><path fill="#FFCBC7" d="M982.17 619.456s.711-3.467.463-4.562c-.249-1.095-2.109-4.603-.925-6.575 1.942-3.235 9.472-2.651 10.148.16.676 2.811-.817 5.768-1.995 7.419-.846 1.185-.921 5.48-.921 5.48l-6.77-1.922z"></path><path fill="#AABCFA" d="M936.921 650.092c6.303 6.355 30.449 19.628 41.208 16.455 12.118-3.574 11.753-36.325 12.867-44.129a1.704 1.704 0 0 0-1.332-1.907l-7.421-1.587a1.707 1.707 0 0 0-2 1.209l-8.143 25.831s-18.092-13.503-27.77-17.009c-7.409-2.682-16.299 12.173-7.409 21.137z"></path><path fill="#A0B4FA" d="m989.664 620.511-.024-.005c-1.034 8.662-1.342 38.614-13.199 42.111-10.759 3.173-34.504-8.625-40.807-14.981a13.319 13.319 0 0 1-1.59-1.934c.598 1.543 1.533 3.034 2.877 4.389 6.303 6.355 30.449 19.628 41.208 16.455 12.118-3.574 11.753-36.325 12.867-44.129a1.704 1.704 0 0 0-1.332-1.906z"></path><path fill="#FABAB4" d="M950.095 594.007s.152 4.551-4.447 6.253c0 0 .905-1.717-1.175-3.479 0 0 .193 2.822-1.408 4.375s-4.228 4.166-2.554 8.109l-1.254-1.247-.568-9.923 6.571-4.271 4.835.183z"></path><path fill="#263182" d="M953.083 599.4s-.474-3.711-2.987-5.392c0 0-1.102 4.143-4.548 5.488 0 0-.095-1.948-1.074-2.714 0 0-.602 3.068-3.576 5.393-2.778 2.171-.189 7.188.814 8.297 0 0-5.147-3.01-4.574-8.674 0 0-4.135-3.541-4.206-3.717-.071-.177.283-4.213.283-4.213s9.664-2.514 9.683-2.62c.018-.106 3.94-1.381 3.94-1.381l3.017.283 2.266.814.962 8.436z"></path><path fill="#263182" d="M942.543 585.223c-1.817-1.864-4.917-.779-7.046-.027-7.774 2.865-12.261 11.756-9.153 19.591.756 2.584 2.474 2.523.7 5.379-2.146 3.07-5.154 5.561-6.121 9.293-1.074 3.449.082 8.229 4.177 8.815-4.276-.36-5.679-5.339-4.639-8.935.733-3.123 2.917-5.652 4.923-8.048.83-.989 1.65-2.138 1.812-3.423-.204-.359-.549-.686-.737-1.076-3.656-6.975-1.321-16.145 5.542-20.166 2.901-1.671 7.65-4.047 10.542-1.403z"></path><path fill="#F9CBCB" d="M711.484 696.611s1.284 79.962 15.884 97.817c7.044 8.615 30.497 54.714 30.497 54.714 2.626.365 5.065-.165 6.956-3.309-4.778-26.102-11.15-48.445-21.425-61.424-5.363-36.81 10.367-52.875-6.987-87.781l-24.925-.017z"></path><path fill="#F9CBCB" d="M705.222 696.606c-6.16 38.37-3.936 60.238.907 100.272.049.406.121.818.213 1.214l14.256 61.325 7.185.992c1.812-20.263.763-45.743-2.816-62.882 2.66-49.964 27.801-63.873 4.403-100.903l-24.148-.018z"></path><path fill="#263182" d="M753.649 811.122c-8.03-.997-15.349-5.63-20.455.207-3.735 4.258-8.052 7.726-13.408 9.485a25.44 25.44 0 0 1-7.386 1.281c-4.897.125-9.257-3.607-10.544-9.136-2.449-10.581-6.198-29.999-6.184-49.983.026-35.706 10.128-68.852 10.128-68.852s.157-.037.441-.109c3.292-.732 24.159-4.979 31.821 4.522 8.323 10.329 14.407 23.981 12.293 50.575-1.509 18.991 6.099 36.647 11.113 49.288 2.5 6.338-1.867 13.48-7.819 12.722z"></path><path fill="#F9CBCB" d="m711.267 634.641-8.737 18.512s-.298-.472-.802-1.308c-3.335-5.404-15.98-26.104-19.186-34.358-2.578-6.647-3.053-23.717-2.589-35.307.176-4.299.478-7.857.857-9.841 0 0-5.413-4.948-.388-7.701 4.836-2.642 1.44-10.376 3.251-10.627 1.811-.25 2.796 10.206 2.796 10.206s2.569-2.723 3.434-1.683c1.306 1.544-3.141 9.808-3.141 9.808a149.834 149.834 0 0 1 1.791 5.843c2.922 10.269 4.914 21.435 5.928 33.435 5.398 5.596 11.045 13.805 16.786 23.021z"></path><path fill="#3E3279" d="m735.394 695.867-31.194-.023c1.627-7.084 5.613-10.877-.232-26.959-2.436-6.694-2.857-12.364-2.24-17.04 1.551-11.62 9.539-17.204 9.539-17.204l7.483-4.199 9.149.006 9.191 6.526s-.475 25.841-1.915 34.673c-1.265 7.794-2.752 16.691.219 24.22z"></path><path fill="#FE81DF" d="M740.54 700.705c-14.351 7.343-19.258-.565-30.155-.652a26.384 26.384 0 0 0-2.677.14c-3.307.36-5.982-2.603-5.428-5.878 1.724-10.061 1.149-21.179-1.376-36.187a46.383 46.383 0 0 0-2.764-9.734 48.08 48.08 0 0 0-2.657-5.513c-4.702-8.412-10.757-19.786-12.941-25.393-2.578-6.647-3.053-23.717-2.589-35.307l8.601-3.994c2.922 10.269 5.087 20.427 6.858 33.027 4.374 4.554 8.322 11.076 12.71 18.307a6.227 6.227 0 0 0 8.361 2.195l2.268-1.274 9.149.006 9.191 6.526s-.475 25.841-1.915 34.673c-1.266 7.794 2.393 21.528 5.364 29.058z"></path><path fill="#F9CBCB" d="M768.62 674.664c-.016.126-.016.268-.048.409-.301 2.503-1.878 5.369-4.053 8.265-4.13 5.493-10.464 11.078-14.529 14.414-2.332 1.904-3.908 3.083-3.908 3.083 4.025 9.105-4.138 17.476-6.559 12.656-.503-1.039 1.342-4.597 1.343-6.014.001-.882-1.549-1.859-2.613-3.419-1.209-1.773-.184-3.984.557-5.023 1.435-1.967 2.838-4.171 4.272-6.438 3.831-6.028 7.93-12.576 13.649-16.997-9.649-5.14-16.151-7.444-22.808-13.528l3.168-25.098c-.001 0 32.34 26.179 31.529 37.69z"></path><path fill="#FE81DF" d="M768.62 674.664c-.016.126-.016.268-.048.409a1401.086 1401.086 0 0 1-4.053 8.265c-4.13 5.493-10.464 11.078-14.529 14.414l-6.909-5.155c3.831-6.028 7.93-12.576 13.649-16.997-9.649-5.14-16.151-7.444-22.808-13.528l3.168-25.098s32.341 26.179 31.53 37.69z"></path><path fill="#F9CBCB" d="M712.207 598.662s-3.904 10.785-.911 17.53c2.992 6.745 14.982 2.108 14.982 2.108l-14.071-19.638z"></path><path fill="#F9CBCB" d="m719.509 619.398-.754 11.042 9.141.007-.305-11.569z"></path><path fill="#263182" d="M754.701 636.931c-.801-5.97 2.657-8.811.477-14.426-2.078-5.352-8.41-7.866-11.232-12.865-2.109-3.736-1.967-8.331-3.494-12.34-2.183-5.73-8.028-9.866-14.158-10.018-6.13-.152-12.173 3.69-14.636 9.306 0 0-3.254 5.814 1.518 13.917 2.572 4.367 9.462 8.16 10.987 12.993 2.828 8.964-9.422 21.18-5.958 29.918 1.883 4.749 7.324 4.687 8.326 9.696.899 4.491-7.387 7.835-.012 17.497 5.51 7.219 12.107 1.424 16.397.998 3.589-.357 9.747 3.371 16.331-.347 12.015-6.786 1.917-15.973 4.462-25.3 3.281-12.021-8.144-12.592-9.008-19.029zM728.093 857.06l1.161 5.947c.41 1.624.526 3.308.344 4.974l-.665 6.424-2.357-.019.21-4.067c-.104-1.051-1.425-1.454-2.098-.639l-2.2 2.667c-.635 1.195-1.793 2.036-3.132 2.227-4.088.587-12.078.834-12.446-1.846-.379-2.756 7.373-2.981 9.596-6.048 2.153-2.969 3.6-9.38 3.6-9.38 2.431.979 5.298.663 7.987-.24zM764.82 845.833l3.754 4.577a14.098 14.098 0 0 1 2.43 4.353l2.134 6.096-2.141.987-1.542-3.768c-.541-.908-1.909-.709-2.17.315l-.854 3.349c-.067 1.351-.757 2.606-1.887 3.349-3.449 2.272-10.573 5.898-12.047 3.63-1.516-2.332 5.402-5.838 6.107-9.558.683-3.604-.738-10.02-.738-10.02 2.617-.151 4.906-1.347 6.954-3.31z"></path><path fill="#F9C2C2" d="M363.99 627.266s34.6 28.323 46.758 26.039c5.31-1.001 11.259-6.126 16.523-12.854 7.671-9.8 6.856-15.184 7.51-23.92.853-11.338-10.034-16.049-15.102-6.037-5.989 11.83-7.306 12.623-9.978 18.121-.986 2.046-1.892 3.485-2.804 4.178-4.781 3.626-36.758-12.789-36.758-12.789s-1.498-6.962-4.405-8.366c-4.468-2.157.536 6.029-1.328 6.44-4.074.898-13.388-13.284-14.664-9.945-3.511 9.188 5.631 18.302 14.248 19.133z"></path><path fill="#3F4883" d="m366.591 623.237 2.624-2.624a.63.63 0 0 0 0-.891l-16.958-16.958a.63.63 0 0 0-.891 0l-2.624 2.624a.63.63 0 0 0 0 .891l16.958 16.958a.63.63 0 0 0 .891 0z"></path><path fill="#F1CCCD" d="M402.937 783.396c1.291 8.1 1.859 15.308 1.863 21.954.025 16.982-3.184 42.79-7.967 58.814l-8.523-1.747s-7.543-45.452-10.928-68.646c-.878-5.887-1.489-11.128-1.681-15.053-1.167-22.41 18.236-83.521 19.485-87.477l.051-.152.017-.057 35.159-1.214c13.824 45.735-9.167 54.468-27.476 93.578z"></path><path fill="#303B82" d="M423.042 749.11c-5.943 9.549-13.339 19.84-20.105 34.286 1.171 7.336 2.577 14.984 4.196 23.897l-30.409 1.05c-.877-5.887-.831-25.698-1.023-29.624-1.167-22.41 18.236-83.521 19.485-87.477l.051-.152.017-.057 35.159-1.214c8.729 28.852 2.794 42.969-7.371 59.291z"></path><path fill="#2C3678" d="M424.803 749.659c-6.236 9.36-13.948 19.417-21.159 33.645.943 7.37 2.112 15.057 3.452 24.015l-5.614.02c.216-8.653-5.408-23.694-7.998-23.588 2.316-.249 28.307-37.642 31.763-51.346l-.444 17.254z"></path><path fill="#F1CCCD" d="m415.793 871.865 26.014-19.477s-9.999-27.123-18.844-45.639c-2.093-4.426-4.126-8.34-5.945-11.308-13.03-21.18-2.49-111.172-2.49-111.172l27.89 6.129c17.448 24.904 5.861 51.369.498 78.851-1.859 9.525-.819 19.331 2.546 28.435a85.656 85.656 0 0 1 1.84 5.544c3.821 13.044 4.604 27.528 3.167 50.72l1.119 15.504-35.795 2.413z"></path><path fill="#414C96" d="m448.814 803.06-8.87 1.921-18.023 3.895c-2.093-4.425-3.083-10.467-4.903-13.435-13.03-21.18-4.497-111.977-4.497-111.977l28.713 6.654 1.184.279c16.865 24.071 6.603 49.6 1.056 76.096-2.264 10.812-1.09 22.11 3.611 32.106.69 1.467 1.286 2.947 1.729 4.461z"></path><path fill="#303B82" d="m448.814 803.06-8.87 1.921c-1.715-4.668-3.934-13.308-4.856-19.016-2.434-15.084 5.08-33.191 9.588-59.981 3.321-19.739-11.098-32.854-11.098-32.854l7.655-3.012 1.184.279c16.865 24.071 6.603 49.6 1.056 76.096-2.264 10.812-1.09 22.11 3.611 32.106.691 1.467 1.287 2.947 1.73 4.461z"></path><path fill="#FFCC7D" d="M452.027 629.947c-.243 18.002-4.679 49.215-6.362 60.443a5.79 5.79 0 0 1-2.414 3.911 5.626 5.626 0 0 1-2.395.954c-8.065 1.198-15.962 1.853-23.653 1.834-6.924 0-13.679-.523-20.247-1.665-2.564-.449-4.529-2.508-4.81-5.09-.917-8.495 1.748-27.133 1.318-45.266-.28-11.471 3.319-40.832 24.739-45.451l12.548-.114c14.072 3.649 19.966 14.409 20.939 21.931.299 2.226.393 5.145.337 8.513z"></path><path fill="#414C96" d="M387.017 854.584c-13.411 4.89-26.318 4.113-27.443 16.123l41.948-.754c.579-5.088-.183-10.153-2.285-15.194l-12.22-.175zM442.279 852.738c-13.117 5.629-30.371 6.932-30.825 18.985l40.827-.045c.295-5.112 1.104-13.21-1.276-18.127l-8.726-.813z"></path><path fill="#3F4883" d="M422.113 588.548c4.085 1.263 5.736 3.303 10.96.943 7.95-3.592 14.66-17.352 4.103-23.575-.73-2.178-1.465-3.026-4.248-3.631-2.781-.604-5.633.607-9.468.541-3.835-.066-9.259-4.014-12.603 1.563-3.343 5.576 4.947 9.912 9.101 12.658 4.157 2.746 2.809 7.483 2.155 11.501z"></path><path fill="#F9CBCB" d="M430.928 599.534c-4.566 4.566-8.872 5.44-12.726.081l1.085-8.807.453-3.708h10.103l.194 2.299.891 10.135z"></path><path fill="#F0B4B4" d="M430.182 591.037c-2.497 3.004-9.376 3.874-11.242 2.586l.8-6.524 10.161-4.264.281 8.202z"></path><path fill="#F9CBCB" d="M414.563 569.44c-1.859 5.241-3.681 16.827.766 21.136 2.815 2.727 13.032 1.673 15.118-5.828 2.464-1.785 4.273-6.135 2.002-8.109-1.619-1.407-3.686 2.311-6.51 1.696-1.071-.233 2.219-7.39-1.124-8.63-3.344-1.241-6.881 1.446-10.252-.265zM362.255 629.816s31.146 32.083 43.484 31.2c5.389-.389 11.884-4.803 17.88-10.886 8.739-8.862 16.423-21.259 18.069-29.864 2.14-11.167-16.019-10.133-22.196-.764-7.299 11.07-8.698 11.707-11.979 16.865-1.213 1.921-2.277 3.247-3.263 3.831-5.163 3.057-35.06-16.896-35.06-16.896s-.695-7.088-3.423-8.814c-4.193-2.653-.155 6.051-2.054 6.247-4.15.428-11.786-14.724-13.434-11.552-4.534 8.728 3.509 18.825 11.976 20.633z"></path><path fill="#FFBA4F" d="m403.196 638.43 20.611 18.214c9.647-9.784 18.994-22.111 20.811-31.611 2.363-12.328-14.156-23.326-26.687-6.333-6.632 8.993-11.112 14.036-14.735 19.73z"></path><path fill="#FE81DF" d="M848.11 563.443c-.2 0-.2.31 0 .31s.201-.31 0-.31z"></path><path fill="#FE81DF" d="M917.645 496.388c-15.1-11.491-34.796-16.188-53.704-14.601-12.221 1.026-24.414 4.656-34.374 11.812s-17.503 18.058-19.228 30.2c-1.725 12.142 2.924 25.333 12.776 32.637 10.415 7.721 24.553 8.034 37.378 6.138 16.232-2.4 31.918-7.789 48.176-10.008 6.725-.918 13.829-1.237 20.041 1.496 6.212 2.734 11.147 5.954 13.168 15.002 10.039-38.735-9.132-61.185-24.233-72.676z"></path><path fill="#FE81DF" d="M890.424 563.696c-1.561.35-3.006 1.104-4.504 1.663-1.507.562-3.037 1.069-4.563 1.576-3.065 1.02-6.125 2.038-9.254 2.847-6.229 1.612-12.636 2.573-19.074 2.677-11.327.184-22.705-2.357-32.455-8.241-5.284-3.189-10.131-7.429-13.891-12.332-.18-.235-.58-.025-.41.24 3.018 4.701 6.768 8.61 11.267 11.922 4.551 3.35 9.641 5.926 14.978 7.768 12.075 4.166 24.994 4.1 37.372 1.304 3.662-.827 7.317-1.845 10.842-3.144 1.742-.642 3.448-1.385 5.136-2.159 1.736-.797 3.654-1.477 5.184-2.631.716-.538.326-1.704-.628-1.49zM949.483 523.809c-1.503-6.269-4.349-12.149-8.287-17.25a44.678 44.678 0 0 0-6.718-6.98 44.946 44.946 0 0 0-3.617-2.74c-1.258-.852-2.75-1.827-4.21-2.265-.348-.104-.639.37-.362.621 1.085.981 2.428 1.763 3.603 2.641a47.443 47.443 0 0 1 3.733 3.068 46.098 46.098 0 0 1 6.066 6.816c3.63 4.991 6.218 10.68 7.542 16.709.321 1.462 2.601.845 2.25-.62zM905.031 559.721c-.666-.349-1.594-.23-2.326-.161a14.13 14.13 0 0 0-2.181.367c-.692.176-1.364.413-2.012.712-.69.319-1.469.665-1.905 1.307-.365.538.109 1.465.793 1.383.265-.032.48-.057.724-.172.149-.071.293-.154.441-.226.26-.127.424-.2.656-.291.595-.232 1.202-.44 1.822-.596.3-.075.603-.14.909-.193.331-.057.4-.065.753-.096.308-.026.618-.041.928-.044.375-.003.792.073 1.146-.065.397-.154.701-.429.755-.875.048-.401-.127-.852-.503-1.05z"></path><path fill="#FFF" d="M840.164 522.819a4.887 4.887 0 1 1 9.773.001 4.887 4.887 0 0 1-9.773-.001zM857.795 522.819a4.887 4.887 0 1 1 9.773.001 4.887 4.887 0 0 1-9.773-.001zM875.427 522.819a4.886 4.886 0 1 1 9.772 0 4.886 4.886 0 0 1-9.772 0zM893.058 522.819a4.886 4.886 0 1 1 9.772 0 4.886 4.886 0 0 1-9.772 0z"></path><path fill="#FE81DF" d="M526.309 468.242c-18.133-31.617-84.148-28.325-90.364 13.362-3.013 15.102 9.924 27.902 21.743 34.904 18.28 10.829 1.647 21.467-15.622 19.013 38.123 19.528 108.6-24.809 84.243-67.279z"></path><path fill="#FFF" d="M481.807 501.815c0-2.561.375-5.354 1.132-8.377.755-3.024 1.848-6.698 3.279-11.023l.595-1.826c1.112-3.654 1.669-6.718 1.669-9.196 0-3.905-1.192-5.858-3.577-5.858-1.51 0-2.265.945-2.265 2.834 0 .462.278 1.596.835 3.401 0 .043-.199.168-.596.378-1.353.63-2.346.945-2.98.945-2.226 0-3.338-1.406-3.338-4.22v-.63c0-1.091.217-2.025.655-2.803.435-.777 1.251-1.459 2.444-2.047 1.35-.588 3.018-.882 5.006-.882 1.747 0 3.258.168 4.53.504 1.271.336 2.305.798 3.099 1.386 1.271 1.008 2.066 2.499 2.385 4.472.078.462.119 1.281.119 2.457 0 3.696-1.192 7.727-3.577 12.094-1.034 1.806-1.906 4.084-2.622 6.834a33.746 33.746 0 0 0-1.073 8.535c0 2.31.039 3.716.119 4.22-1.43 0-2.226.043-2.384.126-.16.043-.358.063-.597.063-1.588-.002-2.542-.463-2.858-1.387zm0 7.747c-.876-.419-1.312-.945-1.312-1.575 0-.587.477-1.143 1.431-1.669.954-.525 2.027-.788 3.219-.788.954 0 1.907.274 2.86.819.954.546 1.431 1.07 1.431 1.574 0 1.596-1.591 2.393-4.769 2.393-1.192.002-2.146-.25-2.86-.754z"></path><path fill="#FE81DF" d="M542.173 483.487a40.79 40.79 0 0 0-.732-6.319 42.328 42.328 0 0 0-4.279-11.92c-3.818-7.085-9.775-12.897-16.878-16.662-3.927-2.082-8.15-3.477-12.572-3.939-.484-.051-.563.711-.113.834 7.267 1.986 14.121 5.313 19.612 10.543a39.417 39.417 0 0 1 11.287 20.013c.49 2.204.796 4.447.917 6.702.121 2.249-.247 4.515-.104 6.745.089 1.393 2.063 1.748 2.48.336.581-1.973.459-4.298.382-6.333zM540.572 497.824a10.441 10.441 0 0 0-.069-.528c-.031-.192-.143-.294-.204-.465-.069-.192-.359-.335-.514-.136-.093.119-.226.178-.321.304-.092.122-.16.27-.237.401-.159.272-.309.549-.457.827-.332.625-.562 1.3-.838 1.95.057-.133-.111.246-.129.286a19.06 19.06 0 0 1-.669 1.318c-.161.287-.33.57-.507.847-.088.139-.186.273-.271.413-.172.283-.218.527-.257.852-.114.948 1.117 1.496 1.845 1.059.664-.4 1.015-1.308 1.338-1.988.318-.669.604-1.356.849-2.055.233-.665.427-1.36.471-2.068a6.07 6.07 0 0 0-.03-1.017zM452.578 522.125c-.909-.526-2.015-.765-2.977-1.199a28.281 28.281 0 0 1-7.871-5.292c-1.539-1.463-2.944-3.048-4.141-4.804-1.189-1.744-2.338-3.611-3.183-5.546-.16-.367-.749-.104-.639.27.637 2.188 1.405 4.197 2.603 6.144 1.178 1.914 2.577 3.729 4.17 5.317a30.61 30.61 0 0 0 5.201 4.16 28.234 28.234 0 0 0 3.043 1.68c1.028.487 2.138 1.061 3.271 1.208 1.065.137 1.349-1.459.523-1.938z"></path><path fill="#5070DE" d="m698.845 80.347 28.218 4.635-7.058-15.274z"></path><path fill="#839FFC" d="m724.378 89.299 38.106-7.086-45.637-6.791zM762.524 82.172 708.267 49.88l6.765 14.018z"></path><path fill="#6281E8" d="m762.484 82.213-45.747-6.677-17.892 4.811 16.207-16.659z"></path><path fill="#FF91DA" d="M1083.244 414.608c.357.577.471 1.272.304 1.956a2.55 2.55 0 0 1-1.778 1.859l-8.618 2.514a2.547 2.547 0 0 1-2.499-.611 2.548 2.548 0 0 1-.72-2.469l2.132-8.72a2.547 2.547 0 0 1 1.779-1.859 2.545 2.545 0 0 1 2.498.611l6.486 6.207c.162.155.302.327.416.512zm-11.28 4.141a.55.55 0 0 0 .619.24l8.618-2.513a.536.536 0 0 0 .376-.393.533.533 0 0 0-.152-.522l-6.486-6.207a.534.534 0 0 0-.529-.129.537.537 0 0 0-.377.393l-2.132 8.72a.526.526 0 0 0 .063.411zM299.427 304.638c.357.577.471 1.272.304 1.956a2.55 2.55 0 0 1-1.778 1.859l-8.618 2.514a2.547 2.547 0 0 1-2.499-.611 2.547 2.547 0 0 1-.72-2.469l2.132-8.72c.221-.904.886-1.598 1.779-1.859s1.827-.032 2.498.611l6.486 6.207c.163.156.302.328.416.512zm-11.279 4.141a.55.55 0 0 0 .619.24l8.618-2.513a.536.536 0 0 0 .376-.393.533.533 0 0 0-.152-.522l-6.486-6.207a.534.534 0 0 0-.529-.129.535.535 0 0 0-.376.393l-2.132 8.72a.52.52 0 0 0 .062.411z"></path><path fill="#FFB86B" d="m984.101 476.573 3.17-3.17a1.842 1.842 0 1 0-2.606-2.606l-3.17 3.17-3.17-3.17a1.842 1.842 0 1 0-2.606 2.606l3.17 3.17-3.164 3.164a1.842 1.842 0 1 0 2.606 2.606l3.164-3.165 3.165 3.165a1.838 1.838 0 0 0 2.606 0c.72-.719.72-1.886 0-2.606l-3.165-3.164zM428.439 211.207l3.17-3.17a1.842 1.842 0 1 0-2.606-2.606l-3.17 3.17-3.17-3.17a1.842 1.842 0 1 0-2.606 2.606l3.17 3.17-3.164 3.164a1.842 1.842 0 1 0 2.606 2.606l3.165-3.165 3.164 3.165a1.838 1.838 0 0 0 2.606 0c.72-.719.72-1.886 0-2.606l-3.165-3.164z"></path><path fill="#736FC7" d="M1016.315 344.815c-3.992 0-7.241-3.248-7.241-7.241 0-3.992 3.248-7.241 7.241-7.241s7.241 3.248 7.241 7.241c0 3.993-3.249 7.241-7.241 7.241zm0-12.216a4.98 4.98 0 0 0-4.975 4.975 4.98 4.98 0 0 0 4.975 4.975 4.98 4.98 0 0 0 4.975-4.975 4.98 4.98 0 0 0-4.975-4.975zM390.047 477.498c-3.992 0-7.241-3.248-7.241-7.241 0-3.993 3.248-7.241 7.241-7.241 3.992 0 7.241 3.248 7.241 7.241 0 3.993-3.249 7.241-7.241 7.241zm0-12.216a4.98 4.98 0 0 0-4.975 4.975 4.98 4.98 0 0 0 4.975 4.975 4.98 4.98 0 0 0 4.975-4.975 4.98 4.98 0 0 0-4.975-4.975z"></path></svg>